<?xml version="1.0" encoding="utf-8"?>
<!-- Generator: Adobe Illustrator 22.0.1, SVG Export Plug-In . SVG Version: 6.00 Build 0)  -->
<svg version="1.1" id="font_x5F_black" xmlns="http://www.w3.org/2000/svg" xmlns:xlink="http://www.w3.org/1999/xlink" x="0px"
	 y="0px" width="308.7px" height="68.3px" viewBox="0 0 308.7 68.3" style="enable-background:new 0 0 308.7 68.3;"
	 xml:space="preserve">
<style type="text/css">
	.st0{stroke:#010202;stroke-miterlimit:10;}
</style>
<path class="st0" d="M77.2,22c0,1.2,0.5,2.3,1.5,3.4v3.8c0,0.3-0.1,0.4-0.4,0.4l0.4,0.9v0.9l-0.4,0.8h0.4l-0.4,0.9v2.1
	c0,2,0.6,3,1.9,3v0.4c-1.8,0.7-2.7,1.5-2.7,2.1l0.4,0.9l-0.8,0.4c0-2-0.6-3.3-1.9-3.8c-0.5,0.3-0.9,0.4-1.2,0.4
	c1.3-0.7,1.9-4.7,1.9-12l-1.2-0.9c-0.5,0.3-0.9,0.4-1.2,0.4C75.1,25.1,76.2,23.7,77.2,22z M79.9,25.9h0.8c0,0.6-0.3,0.9-0.8,0.9
	V25.9z M82.6,22.5H83c0.4,2,1.3,3,2.7,3c0.1-0.6,0.3-0.9,0.8-0.9h0.4c-0.5,1.1-1.2,1.7-1.9,1.7v3.4c0,1.5-0.1,3.9-0.4,7.3l1.2,0.9
	c0.5-0.3,0.9-0.4,1.2-0.4c-2,1.9-3.1,3.5-3.1,4.7h-0.4c0-1.9-0.5-3.2-1.5-3.8c0-0.3-0.3-0.4-0.8-0.4l0.8-1.3v-9.8
	c0-0.6-0.4-0.9-1.2-0.9C81.9,24.4,82.6,23.2,82.6,22.5z"/>
<path class="st0" d="M93.8,23.3h0.4c0,2.3,0.6,3.4,1.9,3.4c0.3-0.5,0.4-1,0.4-1.3h0.8v0.4c-0.7,1.8-1.3,2.8-1.9,3h-1.2L93,28h-0.4v9
	c0,0.5,0.5,1,1.5,1.7h1.2l1.2-0.8h0.4v0.8c-2.6,0.7-3.8,2.2-3.8,4.7h-0.8v-2.1c-0.7-1.4-2-2.1-3.8-2.1c0.8-0.6,1.3-3.3,1.5-8.1h-0.4
	l0.4-0.8c-0.3-1.4-0.8-2.1-1.5-2.1v-0.4h0.4l1.9,0.4C92.5,28,93.5,26.4,93.8,23.3z"/>
<path class="st0" d="M107.3,22.5h0.8c0,1.5,0.8,2.7,2.3,3.4l1.5-0.8v0.8c-0.7,0-1.4,0.6-1.9,1.7V37c-1,2.3-3.1,3.4-6.5,3.4V40
	c0-0.7-1-1.2-3.1-1.3l0.8-1.3v-5.6c0-2.4-0.3-4.3-0.8-5.6l-0.8,0.4h-0.8c1.8-1.5,2.7-2.6,2.7-3.4l0.8-0.4c0,1.6,0.6,2.5,1.9,3
	l-0.4,2.1v8.1c0,0.4,1,1.4,3.1,3l0.4-0.9V27.6c0-0.8-0.6-1.2-1.9-1.3v-0.4l2.3-2.6L107.3,22.5z M101.2,40.8h0.4L100,43v0.8
	c0,0.4,0.4,0.8,1.2,1.3c4.2-2,7-3,8.4-3c1,0,1.9,0.7,2.7,2.1v0.9c0,0.4-0.4,0.8-1.2,1.3h-0.4l1.2-2.1l-1.2-0.9h-0.4
	c-0.8,0-3,1.4-6.5,4.3h-3.1c-1.3-0.9-1.9-1.9-1.9-3C98.9,43.2,99.6,41.9,101.2,40.8z M101.5,40.4h1.5v0.4h-1.5V40.4z"/>
<path class="st0" d="M129.2,23.3h0.4c0,2.3,1.5,3.4,4.6,3.4l-1.2,1.7v8.1c0,0.8,0.3,1.6,0.8,2.6c-3.8,0.5-5.8,1.8-5.8,3.8h-0.4
	c0-1.9-1.4-3-4.2-3.4c-0.5,0.3-0.9,0.4-1.2,0.4c1.3-1.1,1.9-3.4,1.9-6.8V31c0-1.5-0.4-2.8-1.2-3.8C126.7,27.1,128.7,25.9,129.2,23.3
	z M126.9,26.7v11.1c2,1.1,3.1,1.7,3.5,1.7V29.3C129.3,27.6,128.1,26.7,126.9,26.7z"/>
<path class="st0" d="M139.3,18.6c1,2.3,1.5,3.7,1.5,4.3v2.6h1.2l1.2-0.9V25c0,0.4-0.5,1-1.5,1.7c0-0.3-0.1-0.4-0.4-0.4
	c-0.3,0.9-0.5,1.3-0.8,1.3l0.4,0.8v6.9l-0.4,3c0.4,0,0.8,0.4,1.2,1.3c-1.3,0-2,1-2.3,3h-0.8v-0.4c0-0.3,0.1-0.4,0.4-0.4
	c0-1.1-0.6-1.7-1.9-1.7v-0.4c0.8-1.2,1.1-2.7,1.2-4.7c0-0.3-0.1-0.4-0.4-0.4l0.4-2.1v-5.6H137l-1.2,0.9v-0.4c0-0.4,0.8-1.1,2.3-2.1
	v-1.7c0-1.7-0.5-2.6-1.5-2.6v-0.4C136.6,19.9,137.5,19.3,139.3,18.6z M141.2,16c0,0.3,0.5,1.1,1.5,2.6c0,0.4-0.4,0.8-1.2,1.3h-0.4
	c0-0.9-0.5-1.3-1.5-1.3v-0.4C140.3,16.8,140.8,16.1,141.2,16z"/>
<path class="st0" d="M163.2,1.5h0.4c0.3,1,0.4,2.1,0.4,3.3h-0.4v7.1h0.4l0.9-0.5c1.2,2.8,3.6,4.2,7.2,4.2v0.5
	c-2.6,2.2-3.8,4.1-3.8,5.7v0.5c0.1,0.6,0.4,0.9,0.9,0.9h0.9c0.6,0,0.9-0.3,0.9-0.9v-0.5l-0.9-1.4h0.4c0.6,0.1,0.9,0.4,0.9,1v1.4
	c0,0.5-0.6,0.9-1.7,1.4c-1.4-0.5-2.1-1.3-2.1-2.4c0.3-1,0.4-2.1,0.4-3.3c-2.5-1.3-3.9-1.9-4.2-1.9v7.1l1.3-1c1.5,0,2.7,0.9,3.4,2.8
	c3.4,1.4,5.7,3.4,6.8,6.1c0.3,0.6,0.4,1.2,0.4,1.9v0.5c-3.2-3.5-6.4-5.2-9.7-5.2l-0.4,1c6.5,1.8,9.7,4.1,9.7,7.1v0.5
	c0,1.7-1.1,3.4-3.4,5.2h-0.4l2.1-2.8v-1.9c-0.4-1.3-3.4-2.8-8.9-4.7l-0.8,1.4v6.6c1.1,0,2.8,0.9,5.1,2.8l2.1-1.4h0.4
	c-3.1,2.5-4.7,4.9-4.7,7.1h-0.4c0-2.2-0.7-3.7-2.1-4.2h-0.4v1l0.4,0.9h-0.9c0-2.2-0.8-3.3-2.5-3.3h-1.3c-4.3,0-6.9,1.6-7.6,4.7
	c0,2.6,1.6,4.2,4.7,4.7c0.7,0,1.7-0.5,3-1.4h0.4c-0.5,1.3-1.5,1.9-3,1.9h-1.3c-2.8-0.6-4.2-2.2-4.2-4.7v-1c0-4.3,3.4-6.8,10.2-7.5
	h1.7v-6.1h-1.7v-0.5c1.4,0,2.1-0.5,2.1-1.4c-0.6,0-0.9-0.3-0.9-1c0.5-0.3,1.1-0.5,1.7-0.5l-0.8-1.4v-0.5h0.8v-0.5
	c0-0.6-0.3-0.9-0.8-0.9h-0.9c-0.6,0.1-0.9,0.4-0.9,0.9v0.5l0.9,1.4c-1.4,0-2.1,0.8-2.1,2.3c0.6,0.1,0.9,0.4,0.9,1h-0.4l-1.7-2.8
	c-4.2-1.5-6.4-3.9-6.4-7.1v-1.4h0.4c0,2.4,2.7,4.3,8,5.7l0.4-1c-5.6-2-8.5-4.5-8.5-7.5V18c0-2,3.1-3.7,9.3-5.2l0.4-1V4.8h-0.8
	C162.4,4.6,162.6,3.5,163.2,1.5z M154.3,19.9c2.1,2.2,5.1,3.6,8.9,4.2v-8c-0.6-1.3-1.3-1.9-2.1-1.9
	C157.1,14.3,154.8,16.2,154.3,19.9z M163.2,48.7h0.9v0.5c0,0.3-0.1,0.5-0.4,0.5l0.4,1v7.1c0,1.1,0.1,2.5,0.4,4.2
	c-0.3,0.6-0.4,1.1-0.4,1.4h0.4c-0.3,0.6-0.4,1.2-0.4,1.9h-0.9l0.4-0.9l-0.9-0.5l0.4-0.9v-0.5h-0.8v-0.9c0.7-1.9,1.1-2.8,1.3-2.8
	l-0.4-1V48.7z M163.6,25.1c0.1,0.6,0.4,0.9,0.8,0.9l-0.4,1v0.5h2.1V27l-0.9-1.4c0.8,0,1.3-0.3,1.3-1v-0.9c-0.6,0-0.9-0.2-0.9-0.5
	C164.4,23.8,163.7,24.5,163.6,25.1z"/>
<path class="st0" d="M185,22.5h0.8c0,1.5,0.8,2.7,2.3,3.4l1.5-0.8v0.8c-0.7,0-1.4,0.6-1.9,1.7V37c-1,2.3-3.1,3.4-6.5,3.4V40
	c0-0.7-1-1.2-3.1-1.3l0.8-1.3v-5.6c0-2.4-0.3-4.3-0.8-5.6l-0.8,0.4h-0.8c1.8-1.5,2.7-2.6,2.7-3.4l0.8-0.4c0,1.6,0.6,2.5,1.9,3
	l-0.4,2.1v8.1c0,0.4,1,1.4,3.1,3l0.4-0.9V27.6c0-0.8-0.6-1.2-1.9-1.3v-0.4l2.3-2.6L185,22.5z M178.9,40.8h0.4l-1.5,2.1v0.8
	c0,0.4,0.4,0.8,1.2,1.3c4.2-2,7-3,8.4-3c1,0,1.9,0.7,2.7,2.1v0.9c0,0.4-0.4,0.8-1.2,1.3h-0.4l1.2-2.1l-1.2-0.9h-0.4
	c-0.8,0-3,1.4-6.5,4.3h-3.1c-1.3-0.9-1.9-1.9-1.9-3C176.6,43.2,177.3,41.9,178.9,40.8z M179.2,40.4h1.5v0.4h-1.5V40.4z"/>
<path class="st0" d="M194.7,22.9c0.3,0,1.1,1.3,2.3,3.8h1.2c1-0.3,1.5-1.6,1.5-3.8h0.4c0,2.8,0.8,4.3,2.3,4.3v0.4
	c-1.5,0.2-2.3,1-2.3,2.6h-0.8c0-1.7-0.8-2.6-2.3-2.6V37c0,0.6,0.6,1.1,1.9,1.3l-1.9,2.6V43h-0.8v-2.1c-0.4-1.1-1.3-1.7-2.7-1.7h-0.4
	L192,40h-0.4c1.5-1.6,2.3-3.3,2.3-5.1v-7.3c0-0.6-0.4-0.9-1.2-0.9C194,25.4,194.7,24.1,194.7,22.9z"/>
<path class="st0" d="M210.5,22.9l0.8,0.4l-0.4,0.9c0.5,1,1.2,1.8,2.3,2.1c0.5-0.3,0.9-0.4,1.2-0.4l-1.5,2.1v9.4
	c0,0.9,0.5,1.3,1.5,1.3c0,0.4-0.8,1.3-2.3,2.6h-0.4c-0.3-1.6-1.2-2.5-2.7-2.6l1.2-1.7v-3c0-0.6-0.1-1.2-0.4-1.7
	c0.3-0.5,0.4-1.1,0.4-1.7c0-2.6-0.6-3.8-1.9-3.8c-0.7,0-1.3,0.7-1.9,2.1c0,0.5,0.8,1.5,2.3,3c-1.3,0.1-1.9,0.5-1.9,1.3v4.3
	c0,0.9,0.8,1.3,2.3,1.3v0.4c-0.5,0-1.5,0.9-3.1,2.6c-1.3-2.1-1.9-3.5-1.9-4.3v-3.8c0-0.7,1-1.4,3.1-2.1V31c-0.6,0-1.2-1.1-1.9-3.4
	c-0.4,0-0.8-0.4-1.2-1.3c0.9,0,1.7-0.9,2.7-2.6c0,1.7,0.8,2.6,2.3,2.6C210,26.3,210.5,25.2,210.5,22.9z"/>
<path class="st0" d="M221.3,23.3h0.4c0,2.3,0.6,3.4,1.9,3.4c0.3-0.5,0.4-1,0.4-1.3h0.8v0.4c-0.7,1.8-1.3,2.8-1.9,3h-1.2l-1.2-0.9
	h-0.4v9c0,0.5,0.5,1,1.5,1.7h1.2l1.2-0.8h0.4v0.8c-2.6,0.7-3.8,2.2-3.8,4.7h-0.8v-2.1c-0.7-1.4-2-2.1-3.8-2.1
	c0.8-0.6,1.3-3.3,1.5-8.1h-0.4l0.4-0.8c-0.3-1.4-0.8-2.1-1.5-2.1v-0.4h0.4l1.9,0.4C220,28,221.1,26.4,221.3,23.3z"/>
<path class="st0" d="M229.9,22c0,1.2,0.5,2.3,1.5,3.4v3.8c0,0.3-0.1,0.4-0.4,0.4l0.4,0.9v0.9l-0.4,0.8h0.4l-0.4,0.9v2.1
	c0,2,0.6,3,1.9,3v0.4c-1.8,0.7-2.7,1.5-2.7,2.1l0.4,0.9l-0.8,0.4c0-2-0.6-3.3-1.9-3.8c-0.5,0.3-0.9,0.4-1.2,0.4
	c1.3-0.7,1.9-4.7,1.9-12l-1.2-0.9c-0.5,0.3-0.9,0.4-1.2,0.4C227.7,25.1,228.9,23.7,229.9,22z M232.5,25.9h0.8c0,0.6-0.3,0.9-0.8,0.9
	V25.9z M235.2,22.5h0.4c0.4,2,1.3,3,2.7,3c0.1-0.6,0.3-0.9,0.8-0.9h0.4c-0.5,1.1-1.2,1.7-1.9,1.7v3.4c0,1.5-0.1,3.9-0.4,7.3l1.2,0.9
	c0.5-0.3,0.9-0.4,1.2-0.4c-2,1.9-3.1,3.5-3.1,4.7H236c0-1.9-0.5-3.2-1.5-3.8c0-0.3-0.3-0.4-0.8-0.4l0.8-1.3v-9.8
	c0-0.6-0.4-0.9-1.2-0.9C234.6,24.4,235.2,23.2,235.2,22.5z"/>
<path class="st0" d="M248,22h0.8c0,2.6,1.2,4.1,3.5,4.7c0.5,0.1,0.8,0.4,0.8,0.9c-3.1,1.2-4.6,2.5-4.6,3.8h3.1l1.2-0.9h0.4
	c-0.5,1.9-0.8,3.1-0.8,3.8v0.4c0,1.5,0.4,2.8,1.2,3.8v0.9c-0.8-0.6-1.6-0.9-2.3-0.9h-0.8c-1.8,0.9-2.7,2.2-2.7,3.8h-0.8v-2.1
	c0-0.4-0.4-0.8-1.2-1.3c-1.1,1.1-2.1,1.7-3.1,1.7h-0.4c-0.4,0-0.8-0.4-1.2-1.3c0-1.3,1.5-2.5,4.6-3.4c0,0.3,0.1,0.4,0.4,0.4
	c0.8-2.4,1.2-4,1.2-4.7h-1.9c-0.6,0-1.8,0.3-3.5,0.9c0.8-1.1,1.2-2.1,1.2-3v-0.8c0-1.4-0.4-2.1-1.2-2.1v-0.9h0.4
	c0.3,0,0.7,0.1,1.2,0.4C246.4,26.3,248,24.9,248,22z M241.8,39.6c0.1,0.6,0.3,0.9,0.8,0.9c1.2-0.5,1.8-1.1,1.9-1.7v-0.4H243
	C242.6,38.3,242.2,38.7,241.8,39.6z M246.1,26.3v4.3c0.1,0.6,0.3,0.9,0.8,0.9h0.8c0-0.6,0.5-1.4,1.5-2.6L246.1,26.3z M247.2,36.6
	l1.5,1.3l0.4-0.9v-4.7h-0.8C247.6,32.3,247.2,33.7,247.2,36.6z"/>
<path class="st0" d="M261.1,23.3h0.4c0,2.2,1,4.5,3.1,6.9v0.4c-0.8,0-2.7,1.6-5.8,4.7c0,1.5,1.3,2.6,3.8,3.4c0-0.4,0.8-1.1,2.3-2.1
	V37c-2.8,2.2-4.2,4.1-4.2,5.6V43H260c0-1.3-1-2.6-3.1-3.8h-0.8L255,40v-0.4l1.5-2.1v-8.1l-1.2-1.7v-0.4h1.9
	C259.8,27.1,261.1,25.9,261.1,23.3z M259.2,27.6v3.8l-0.4,2.1h0.8c0.3,0,1-0.7,1.9-2.1V31c0-1.6-0.6-2.7-1.9-3.4H259.2z"/>
<path class="st0" d="M52.9,12c0.8,0,0.7,0.6,4,1.9c0,0.5,0.7,1.7-2.1,3.4h-0.5c0-1.2-1.4-2-4.3-2.4c-4.1,0.8-6.2,2.5-6.2,5.3l1.4,2
	h-0.5c-1.3-0.5-1.9-1.7-1.9-3.4C45,14.2,48.4,12,52.9,12z M45.3,22.2h3.8v0.5h-3.8V22.2z M46.6,49.4l-0.5,2.4v2.4l1,1.5v0.5
	c-1,0-1.6-1.3-1.9-3.9C45.5,50.3,46,49.4,46.6,49.4z M51,20.7h0.5c0,0.6-0.3,1-1,1H50C50.1,21,50.4,20.7,51,20.7z M64.2,1.8h1
	c0,0.9,0.3,1.9,1,2.9h-1.4v3.4l0.5,1h-0.5c0.2,2.6,1.6,3.9,4.3,3.9c0.6,1.3,1.7,2,3.3,2v0.5c-0.4,0-2.2,1.1-5.2,3.4l0.5-2.4v-0.5
	c0-1.8-0.8-2.9-2.4-3.4v20.4l-0.5,1h0.5l-0.5,1v7.3l19.6,3.4c-2.7,2-19.4,1.3-19.6,1.9v12.7c0,1.1,0.5,2.2,1.4,3.4c-0.6,0-1,1-1,2.9
	h-0.5c-0.6,0-1-0.3-1-1c0.3-0.6,0.5-1.1,0.5-1.5c-0.6,0-0.9-0.3-0.9-1c0.6,0,0.9-0.3,0.9-1V46.9c-2.6-1.6-4.6-1.4-6.2-1.4h-2.9
	c-2.8,0-5.6,1.3-8.6,3.9v-0.5c4.6-4.5,15-6.8,13.8-6.8c0.5,0.3,1.2,0.5,1.9,0.5h1.9v-8.3c0-0.7-0.3-1-0.9-1c0,0.7-0.5,1-1.4,1v4.4
	c0,0.6,0.6,1.4-2.6,2.4l1-1.5h-0.5l0.5-1v-4.9c0-0.7-0.3-1-1-1h-1.4v6.8c0,0.5-1.5,1.7-4.3,3.4h-0.5c0.6-1.2,3.1-2.5,3.1-3.9v-4.9
	c0-0.2-0.8-1-2.4-2.4h0.5c0.6,0.3,1.1,0.5,1.4,0.5c0-0.5-1.7-1-0.8-1.5c0,1,0.3,1.5,1,1.5l1.4-1c0.6,0.3,1.1,0.5,1.4,0.5l0.5-1v-0.5
	l-0.5-1h0.9c0,0.4,0.5,1.4,1.4,2.9h0.5l-0.3-1.5c0.5,1.3,1,1.9,1.4,1.9h0.5c0.6,0,0.9-0.3,0.9-1V12.5h-1.4V12h1.4V4.7h-0.9
	C63.9,3.6,64.2,2.6,64.2,1.8z M60.9,53.8v0.5c-1.8,2.6-4.1,3.9-7.1,3.9h-2.9c-1.7,0-3-0.7-3.8-2h0.5c1.6,1,2.9,1.5,3.8,1.5h1.9
	C55.7,57.6,58.3,56.3,60.9,53.8z M53.3,29.5h1c-0.3,0.5-0.5,1.3-0.5,2.4c-0.6,0-1-0.3-1-1C53.2,30.3,53.3,29.8,53.3,29.5z
	 M57.4,15.8h0.5v3.4c0,0.3-0.2,0.5-0.5,0.5l0.5,1v7.8l0.5,1l-2.9,1c0-0.6,1.1-1-1.1-1V29c1.3,0,1.9-0.3,1.9-1v-7.8l-0.9-1.5
	L57.4,15.8z M59.7,13.9h0.5c0,0.7-0.3,1-1,1h-0.5C58.9,14.2,59.2,13.9,59.7,13.9z M62.8,12.5l-0.9,1.5v14.6l0.5,1
	c-0.7,0,0.5,0.5-0.7,1.5c0-0.5-0.6-1-1.9-1.5l0.5-1v-8.7l-1-3.4C62.3,13.8,62,12.5,62.8,12.5z M86.1,43.1h0.5c0,0.5-0.6,1.2-1.9,1.9
	h-0.5C84.2,44.5,84.9,43.8,86.1,43.1z"/>
</svg>
