<?xml version="1.0" encoding="UTF-8"?>
<svg width="449px" height="512px" viewBox="0 0 449 512" version="1.1" xmlns="http://www.w3.org/2000/svg" xmlns:xlink="http://www.w3.org/1999/xlink">
    <!-- Generator: Sketch 49.2 (51160) - http://www.bohemiancoding.com/sketch -->
    <title>Untitled</title>
    <desc>Created with Sketch.</desc>
    <defs></defs>
    <g id="Page-1" stroke="none" stroke-width="1" fill="none" fill-rule="evenodd">
        <g id="logo_image" fill="#000105">
            <path d="M145.225,386.969 C145.431,387.163 145.757,387.738 145.757,388.607 C145.757,389.475 145.431,390.051 145.225,390.246 C145.019,390.049 144.692,389.474 144.692,388.607 C144.692,387.739 145.02,387.163 145.225,386.969 Z M139.666,388.607 C139.666,392.371 142.107,395.32 145.224,395.32 C148.341,395.32 150.784,392.371 150.784,388.607 C150.784,386.561 150.047,384.778 148.887,383.557 C152.711,383.016 156.784,383.575 160.576,386.331 C160.576,386.331 143.794,372.163 132.982,391.55 C132.982,391.55 135.767,388.976 139.909,386.714 C139.766,387.317 139.666,387.942 139.666,388.607 Z" id="Fill-1"></path>
            <path d="M138.87,394.059 C136.27,393.455 136.635,390.408 136.652,390.278 C136.697,389.936 136.455,389.619 136.112,389.574 C135.763,389.526 135.453,389.769 135.406,390.111 C135.205,391.597 135.61,394.591 138.585,395.284 C138.633,395.294 138.681,395.299 138.728,395.299 C139.013,395.299 139.271,395.103 139.339,394.813 C139.417,394.476 139.208,394.137 138.87,394.059" id="Fill-2"></path>
            <path d="M157.593,385.21 C157.25,385.155 156.926,385.375 156.864,385.717 C156.851,385.79 155.485,393.036 150.382,394.055 C150.042,394.122 149.821,394.454 149.889,394.793 C149.949,395.093 150.211,395.299 150.504,395.299 C150.545,395.299 150.587,395.295 150.628,395.287 C156.574,394.099 158.042,386.271 158.101,385.939 C158.162,385.598 157.935,385.271 157.593,385.21" id="Fill-3"></path>
            <path d="M268.263,383.238 C268.468,383.434 268.795,384.01 268.795,384.877 C268.795,385.746 268.468,386.322 268.263,386.517 C268.057,386.323 267.73,385.747 267.73,384.877 C267.73,384.008 268.057,383.433 268.263,383.238 Z M259.437,390.741 C259.536,390.797 259.643,390.824 259.749,390.824 C259.966,390.824 260.179,390.711 260.294,390.507 C260.467,390.206 260.362,389.823 260.062,389.651 C257.798,388.355 257.69,384.898 257.69,384.864 C257.688,384.752 257.648,384.653 257.595,384.563 C259.125,383.234 261.26,381.743 263.599,381.195 C263.035,382.247 262.704,383.505 262.704,384.877 C262.704,388.642 265.146,391.591 268.264,391.591 C271.31,391.591 273.695,388.767 273.802,385.124 C275.69,386.047 277.438,386.534 278.884,386.785 C277.784,388.592 275.275,391.803 271.308,391.804 C270.961,391.804 270.68,392.085 270.68,392.433 C270.68,392.78 270.961,393.061 271.308,393.061 C276.316,393.06 279.202,388.844 280.242,386.962 C281.866,387.11 282.866,386.954 282.866,386.954 C282.866,386.954 273.918,379.013 268.805,377.893 C264.809,377.02 259.287,380.954 256.638,384.422 C256.602,384.456 256.575,384.496 256.547,384.538 C255.901,385.403 255.43,386.236 255.22,386.954 C255.22,386.954 255.692,386.375 256.492,385.585 C256.649,386.844 257.237,389.482 259.437,390.741 Z" id="Fill-4"></path>
            <path d="M241.705,328.79 C223.24,338.38 206.097,333.994 187.2,327.752 C169.295,321.837 141.479,282.726 141.2,282.331 L140.174,283.057 C141.323,284.681 168.509,322.902 186.806,328.945 C197.904,332.612 208.41,335.644 218.958,335.644 C226.63,335.644 234.325,334.038 242.284,329.905 L241.705,328.79" id="Fill-5"></path>
            <path d="M221.798,359.524 C211.478,359.42 205.079,357.819 199.712,353.995 C193.845,349.816 164.562,323.261 164.267,322.994 L163.423,323.923 C164.63,325.019 193.056,350.796 198.983,355.018 C204.579,359.004 211.185,360.674 221.786,360.781 L221.798,359.524" id="Fill-6"></path>
            <path d="M226.792,375.659 C219.272,374.426 204.693,364.66 204.547,364.56 L203.806,365.574 C207.506,368.504 204.908,380.371 203.594,384.695 L204.797,385.06 C204.969,384.495 208.365,373.144 206.308,367.203 C210.864,370.087 220.639,375.923 226.588,376.898 L226.792,375.659" id="Fill-7"></path>
            <path d="M182.945,9.796 C185.75,9.796 188.032,12.078 188.032,14.883 C188.032,17.688 185.75,19.971 182.945,19.971 C180.139,19.971 177.856,17.688 177.856,14.883 C177.856,12.078 180.139,9.796 182.945,9.796 Z M182.945,21.227 C186.442,21.227 189.289,18.381 189.289,14.883 C189.289,11.385 186.442,8.539 182.945,8.539 C179.446,8.539 176.6,11.385 176.6,14.883 C176.6,18.381 179.446,21.227 182.945,21.227 Z" id="Fill-8"></path>
            <path d="M200.096,5.32 C202.9,5.32 205.181,7.603 205.181,10.409 C205.181,13.216 202.9,15.498 200.096,15.498 C197.29,15.498 195.006,13.216 195.006,10.409 C195.006,7.603 197.29,5.32 200.096,5.32 Z M200.096,16.755 C203.593,16.755 206.438,13.908 206.438,10.409 C206.438,6.91 203.593,4.064 200.096,4.064 C196.596,4.064 193.75,6.91 193.75,10.409 C193.75,13.908 196.596,16.755 200.096,16.755 Z" id="Fill-9"></path>
            <path d="M217.246,3.829 C220.051,3.829 222.333,6.112 222.333,8.918 C222.333,11.724 220.051,14.007 217.246,14.007 C214.44,14.007 212.157,11.724 212.157,8.918 C212.157,6.112 214.44,3.829 217.246,3.829 Z M217.246,15.264 C220.744,15.264 223.59,12.417 223.59,8.918 C223.59,5.419 220.744,2.572 217.246,2.572 C213.747,2.572 210.9,5.419 210.9,8.918 C210.9,12.417 213.747,15.264 217.246,15.264 Z" id="Fill-10"></path>
            <g id="Group-14">
                <path d="M234.397,6.813 C237.202,6.813 239.485,9.096 239.485,11.901 C239.485,14.707 237.202,16.99 234.397,16.99 C231.589,16.99 229.306,14.707 229.306,11.901 C229.306,9.096 231.589,6.813 234.397,6.813 Z M234.397,18.246 C237.895,18.246 240.741,15.4 240.741,11.901 C240.741,8.403 237.895,5.557 234.397,5.557 C230.897,5.557 228.049,8.403 228.049,11.901 C228.049,15.4 230.897,18.246 234.397,18.246 Z" id="Fill-11"></path>
                <path d="M372.334,337.367 C367.365,331.33 363.622,330.365 359.66,329.342 C357.563,328.801 355.393,328.242 352.889,326.882 C345.941,323.117 329.617,325.353 326.879,325.763 C309.757,303.798 302.015,286.462 293.821,268.114 C292.676,265.55 291.495,262.924 290.29,260.275 C290.27,260.226 290.255,260.175 290.232,260.127 L290.224,260.131 C289.463,258.457 288.701,256.782 287.908,255.087 C282.655,243.864 282.959,233.514 285.157,223.946 C286.665,228.956 290.746,236.804 294.909,243.581 C301.319,254.02 306.378,263.955 314.956,282.953 C323.21,301.246 337.1,314.746 337.239,314.88 L337.471,315.104 L337.788,315.046 C354.991,311.912 376.313,323.154 376.526,323.268 L376.882,322.603 C384.028,332.872 390.351,343.806 393.528,353.224 C389.632,351.12 378.33,344.651 372.334,337.367 Z M286.805,272.136 C285.707,274.719 284.669,277.16 284.325,279.323 C283.47,284.707 267.067,298.979 266.833,299.192 C266.787,299.246 264.867,301.484 261.396,304.659 C269.456,285.059 272.247,266.917 269.664,250.705 C268.107,240.948 268.122,235.353 268.141,228.269 C268.151,224.581 268.162,220.401 267.94,215.059 C267.449,203.159 270.846,159.122 272.371,140.256 C272.458,141.742 272.52,142.866 272.544,143.477 C272.592,144.652 272.931,148.326 273.399,153.41 C274.863,169.293 277.589,198.861 276.286,204.89 C274.51,213.123 283.38,247.882 284.712,251.048 L284.884,250.975 C285.417,252.506 286.037,254.054 286.771,255.62 C287.582,257.353 288.361,259.068 289.14,260.78 C290.384,263.707 288.568,267.99 286.805,272.136 Z M236.324,321.135 C230.071,323.841 223.413,324.72 217.331,324.702 C215.236,317.371 215.149,301.321 215.158,297.632 C230.537,300.537 261.437,289.436 265.828,287.814 C264.197,293.899 262.001,300.157 259.238,306.574 C253.929,311.146 246.059,316.925 236.324,321.135 Z M158.123,290.974 C158.152,290.215 158.229,288.201 158.291,285.715 C163.363,288.34 188.87,300.806 210.404,297.836 L210.404,324.31 C201.888,323.388 195.718,321.171 195.618,321.134 C179.351,314.176 166.793,301.877 158.123,290.974 Z M147.789,261.112 L148.145,261.168 C148.145,261.168 149.637,251.862 151.875,237.66 C153.219,229.12 156.612,179.388 159.09,141.331 C160.766,162.142 165.055,218.529 163.227,228.896 L162.563,232.643 C161.654,237.774 160.575,243.86 159.599,249.731 C159.508,249.875 159.482,250.04 159.521,250.2 C157.853,260.259 156.507,269.587 156.86,272.249 C157.076,273.875 157.134,276.822 157.121,279.915 C157.043,279.959 156.973,280.017 156.918,280.094 C156.718,280.377 156.785,280.77 157.068,280.97 C157.07,280.971 157.103,280.994 157.114,281.001 C157.083,284.25 156.987,287.505 156.921,289.445 C149.191,279.431 144.855,270.924 144.068,269.326 C145.568,266.649 146.905,263.84 147.789,261.112 Z M125.405,290.637 C120.187,294.432 118.087,314.202 117.739,317.877 C115.599,317.985 107.702,318.731 95.7,323.874 C83.44,329.127 52.437,335.546 45.783,336.892 C47.775,332.169 49.834,327.565 51.958,323.109 C56.853,321.821 82.657,314.975 91.418,311.616 C100.952,307.961 109.753,306.87 109.841,306.859 L110.356,306.796 L110.393,306.278 C110.408,306.049 112.122,283.317 125.127,274.705 C137.268,266.664 137.29,258.371 137.305,252.316 C137.308,251.536 137.31,250.789 137.338,250.084 C137.43,247.814 138.595,241.885 139.943,235.021 C142.262,223.217 144.891,209.837 143.968,205.991 C143.408,203.651 143.3,200.773 143.186,197.726 C143.116,195.879 143.042,194.008 142.873,192.173 C143.484,193.672 144.083,195.222 144.627,196.886 C148.564,208.938 148.089,230.68 147.775,245.066 C147.689,248.964 147.616,252.329 147.642,254.862 C147.763,266.457 130.999,286.568 125.405,290.637 Z M117.001,339.92 C116.811,338.385 116.469,337.326 115.882,336.789 C114.733,335.74 113.104,335.508 111.632,336.191 C111.43,336.285 111.249,336.424 111.06,336.545 C109.68,331.882 110.84,322.253 111.121,320.138 C114.439,319.417 116.693,319.205 117.7,319.143 C117.79,320.899 118.273,331.846 117.001,339.92 Z M118.094,365.058 C120.03,365.785 122.21,368.406 123.513,369.973 C124.707,371.407 125.106,371.887 125.713,371.553 C126.323,371.213 126.056,370.416 125.749,369.492 C124.279,365.081 123.163,349.43 122.423,339.074 C121.655,328.293 123.674,316.098 127.906,315.122 C128.549,314.972 129.036,315.075 129.434,315.438 C131.078,316.94 130.76,322.213 130.494,324.156 C129.087,342.777 136.229,351.471 137.387,352.746 C138.137,358.03 138.569,362.306 137.973,364.29 C137.874,364.622 138.063,364.973 138.395,365.072 C138.455,365.09 138.516,365.099 138.575,365.099 C138.846,365.099 139.096,364.923 139.177,364.651 C140.045,361.76 139.069,355.337 137.833,347.207 C137.416,344.463 136.978,341.575 136.589,338.66 C135.14,327.797 136.046,323.151 138.799,313.59 C138.821,313.525 141,307.071 143.757,305.349 C144.376,304.961 144.936,304.967 145.467,305.363 C146.964,306.482 147.777,310.285 146.544,314.714 C144.692,321.387 147.89,335.873 148.132,336.946 C148.241,341.448 148.387,345.422 148.39,345.494 C148.466,346.796 149.147,358.27 149.524,359.777 C149.608,360.114 149.949,360.313 150.286,360.235 C150.623,360.15 150.827,359.809 150.743,359.473 C150.449,358.294 149.85,348.929 149.645,345.433 C149.641,345.332 149.272,335.304 149.272,329.05 C149.272,324.835 149.454,324.212 149.995,322.363 C150.267,321.433 150.64,320.158 151.119,318.001 C152.478,311.892 153.62,311.767 156.671,311.432 L156.914,311.406 C156.95,311.403 157.018,311.394 157.147,311.555 C159.108,313.981 157.734,330.354 156.993,332.58 C156.547,333.917 157.217,337.072 158.372,342.109 C159.07,345.151 159.791,348.296 159.95,350.35 C160.171,353.25 161.156,359.264 162.024,364.572 C162.604,368.109 163.104,371.165 163.22,372.361 C163.537,375.616 170.689,378.855 171.504,379.214 C171.705,379.303 171.939,379.278 172.119,379.153 C172.299,379.026 172.399,378.814 172.384,378.594 L172.02,373.473 L174.979,361.262 C174.996,361.188 176.809,353.913 183.689,353.913 C184.698,353.913 185.396,354.242 185.824,354.914 C187.647,357.782 184.491,366.002 183.147,368.877 C180.381,373.618 179.619,384.518 178.946,394.136 C178.75,396.94 178.565,399.586 178.341,401.945 C177.372,412.134 166.736,432.695 155.116,446.843 C150.875,452.006 147.73,459.044 145.443,465.913 C145.219,466.188 144.345,467.098 142.454,467.309 C139.208,467.668 133.191,465.958 122.965,455.746 C113.884,446.678 111.575,438.753 111.237,433.703 C110.914,428.881 112.274,425.691 112.607,424.992 C115.085,423.41 116.857,422.399 117.8,421.882 C118.276,422.516 118.828,423.162 119.489,423.823 L119.708,424.042 C125.921,430.257 130.829,435.165 137.883,436.303 C137.917,436.309 137.95,436.311 137.983,436.311 C138.286,436.311 138.553,436.091 138.603,435.784 C138.658,435.44 138.425,435.119 138.083,435.063 C131.431,433.989 126.887,429.445 120.597,423.155 L120.377,422.935 C119.783,422.339 119.285,421.761 118.854,421.194 C118.951,421.019 118.973,420.807 118.876,420.615 C118.75,420.363 118.478,420.242 118.213,420.285 C116.568,417.705 116.363,415.344 116.149,412.878 C115.958,410.682 115.762,408.411 114.53,405.948 C112.237,401.36 112.448,394.811 112.634,389.033 C112.684,387.491 112.731,385.998 112.731,384.604 C112.731,380.33 111.96,378.748 110.893,376.56 C110.243,375.227 109.435,373.57 108.58,370.825 C107.272,366.624 107.666,362.665 108.121,358.082 C108.43,354.955 108.783,351.41 108.63,347.297 C108.406,341.259 110.307,338.19 112.16,337.33 C113.179,336.86 114.253,337.003 115.035,337.717 C116.139,338.726 115.992,344.851 115.875,349.771 C115.661,358.685 115.704,364.163 118.094,365.058 Z M208.652,393.219 C210.228,395.033 212.822,395.696 215.776,395.696 C223.098,395.696 232.622,391.621 234.308,390.873 C234.717,394.426 235.275,398.18 235.868,402.033 C232.909,402.852 219.142,406.809 215.675,410.382 C212.236,413.925 208.906,414.958 201.166,410.282 C194.213,406.08 182.19,405.421 179.026,405.321 C179.289,404.159 179.498,403.051 179.592,402.063 C179.817,399.691 180.003,397.036 180.2,394.224 C180.45,390.637 180.714,386.871 181.088,383.328 C184.864,384.015 203.864,387.707 208.652,393.219 Z M235.387,375.171 C236.011,371.832 236.981,368.394 237.838,365.361 C239.05,361.068 240.096,357.36 239.868,355.087 C239.467,351.076 239.72,344.351 241.227,342.685 C241.494,342.39 241.713,342.356 241.854,342.356 C243.248,342.356 247.861,342.774 248.69,348.162 C248.781,348.747 248.876,349.309 248.97,349.854 C249.64,353.777 250.169,356.875 247.599,364.264 L244.615,372.839 C244.529,373.085 244.604,373.359 244.803,373.526 C245.003,373.695 245.285,373.722 245.512,373.595 C245.962,373.346 256.624,367.257 261.851,346.354 C265.532,331.628 265.877,330.435 266.801,327.243 C267.189,325.899 267.68,324.201 268.559,321.015 C271.223,311.356 271.374,311.358 273.067,311.398 L273.544,311.405 C275.107,311.408 276.068,313.085 276.642,314.087 C276.749,314.274 276.839,314.422 276.926,314.555 C276.813,318.847 276.959,323.108 277.019,324.558 C277.016,324.687 276.625,337.504 274.483,341.427 C272.227,345.566 270.039,356.791 269.947,357.268 C269.88,357.608 270.104,357.938 270.444,358.004 C270.786,358.068 271.114,357.847 271.18,357.505 C271.203,357.391 273.423,345.997 275.586,342.028 C277.871,337.844 278.26,325.133 278.275,324.55 C278.153,321.555 278.112,317.992 278.195,314.717 C278.221,314.667 278.25,314.62 278.262,314.563 C278.292,314.421 278.266,314.287 278.209,314.165 C278.347,309.518 278.746,305.576 279.54,304.917 C280.581,304.051 282.757,304.015 284.496,304.831 C285.05,305.092 286.339,305.83 286.339,307.052 C286.339,308.755 286.92,313.799 287.435,317.932 C287.458,318.562 287.558,319.035 287.589,319.167 C287.914,321.721 288.18,323.699 288.208,323.907 C288.227,324.057 290.034,339.104 288.24,344.125 C286.393,349.297 283.046,360.076 283.012,360.183 C282.909,360.514 283.095,360.867 283.427,360.97 C283.488,360.99 283.551,360.998 283.612,360.998 C283.88,360.998 284.129,360.825 284.212,360.556 C284.246,360.449 287.584,349.695 289.423,344.547 C291.316,339.25 289.532,324.385 289.454,323.746 C289.445,323.686 289.085,321.007 288.683,317.78 C288.672,317.161 288.768,316.412 289.194,315.869 C289.631,315.312 290.397,315.05 291.43,315.058 C295.344,315.128 296.396,317.494 297.16,322.436 C297.447,324.306 298.094,326.59 298.778,329.006 C299.846,332.777 300.951,336.675 300.522,338.607 C299.783,341.932 296.083,360.062 296.067,360.164 C295.137,362.852 293.778,367.518 295.123,368.557 C295.605,368.927 296.241,368.862 297.01,368.35 C300.52,366.009 304.374,360.662 304.374,358.131 C304.374,357.534 304.401,356.616 304.433,355.519 C304.523,352.413 304.646,348.159 304.371,345.394 C304.1,342.673 305.514,339.352 306.862,338.54 C307.345,338.248 307.656,338.379 307.871,338.521 C309.978,339.925 311.692,345.043 311.692,349.928 C311.692,351.306 311.842,352.832 312.001,354.451 C312.445,358.967 312.949,364.088 310.317,367.797 C309.89,368.4 309.436,369.028 308.966,369.676 C305.277,374.777 300.686,381.124 299.896,387.887 C299.616,390.269 299.501,392.521 299.39,394.699 C299.15,399.412 298.941,403.48 297.215,407.444 C297.208,407.458 297.202,407.474 297.196,407.492 C296.376,409.374 295.664,412.053 294.91,414.89 C293.338,420.808 291.382,428.174 287.89,429.111 C282.362,430.594 281.05,430.944 274.079,429.111 C273.743,429.02 273.399,429.222 273.311,429.559 C273.223,429.894 273.423,430.237 273.758,430.326 C277.169,431.224 279.348,431.604 281.265,431.604 C283.445,431.604 285.286,431.111 288.215,430.326 C292.188,429.259 294.167,422.54 295.845,416.264 C297.413,417.14 299.69,418.482 301.924,419.952 C301.726,422.66 300.075,440.452 290.674,448.008 C281.417,455.452 274.574,454.448 269.578,453.714 C268.925,453.619 268.318,453.534 267.74,453.468 C266.759,450.893 265.831,449.012 265.021,448.269 C260.622,444.239 250.312,432.049 250.312,426.736 C250.312,424.099 248.306,422.397 245.984,420.426 C242.894,417.803 239.047,414.538 238,407.626 L237.403,403.741 C235.69,392.663 234.072,382.203 235.387,375.171 Z M306.315,412.673 C308.666,415.5 309.725,419.488 309.522,424.528 C306.731,420.988 298.398,416.239 296.178,415.011 C296.848,412.489 297.488,410.114 298.188,408.383 C299.467,408.521 303.44,409.214 306.315,412.673 Z M211.127,439.49 L205.355,433.718 C209.342,432.334 224.019,426.844 225.002,420.758 C225.858,415.464 234.345,410.191 236.919,408.702 C237.696,412.753 239.382,415.556 241.282,417.714 C240.437,420.161 234.09,436.029 211.127,439.49 Z M242.24,418.736 C243.224,419.726 244.23,420.584 245.17,421.383 C247.341,423.227 249.055,424.681 249.055,426.736 C249.055,432.483 259.223,444.459 263.683,448.728 C261.268,450.965 249.564,461.31 233.119,467.995 C231.276,462.788 216.085,445.143 212.121,440.591 C233.636,437.018 240.697,422.663 242.24,418.736 Z M203.963,473.78 C185.938,473.425 169.292,465.347 154.477,449.788 C154.996,449.042 155.529,448.32 156.086,447.641 C166.326,435.175 175.808,417.733 178.736,406.572 C181.328,406.651 193.706,407.243 200.516,411.357 C204.371,413.687 207.293,414.659 209.687,414.659 C212.497,414.659 214.577,413.318 216.577,411.257 C219.73,408.005 232.928,404.163 236.061,403.286 C236.095,403.501 236.127,403.716 236.161,403.932 L236.692,407.382 C234.611,408.54 224.771,414.319 223.761,420.557 C222.938,425.657 209.219,431.16 204.002,432.85 L203.025,433.166 L210.439,440.577 C218.495,449.763 231.031,464.961 231.983,468.447 C223.616,471.717 214.088,473.996 203.963,473.78 Z M88.294,272.625 C88.491,272.441 108.054,253.78 117.929,217.737 C124.723,192.943 129.504,173.169 132.995,158.731 C134.639,151.927 136.06,146.051 137.32,141.17 C137.848,139.123 138.355,136.889 138.854,134.529 C138.988,149.625 136.803,164.184 136.717,164.752 C133.475,171.855 136.263,177.794 139.712,185.095 C140.077,185.868 140.456,186.672 140.836,187.494 C141.657,190.678 141.799,194.269 141.93,197.773 C142.047,200.884 142.157,203.822 142.746,206.283 C143.605,209.864 140.891,223.678 138.71,234.778 C137.352,241.694 136.178,247.666 136.083,250.033 C136.053,250.754 136.051,251.516 136.049,252.313 C136.033,258.406 136.013,265.988 124.434,273.658 C111.858,281.985 109.502,302.12 109.18,305.68 C107.147,305.972 99.333,307.237 90.968,310.443 C82.754,313.592 59.373,319.85 52.664,321.624 C63.003,300.257 74.885,282.533 88.294,272.625 Z M293.437,147.288 C293.437,144.663 295.572,142.527 298.198,142.527 C300.824,142.527 302.96,144.663 302.96,147.288 C302.96,149.913 300.824,152.049 298.198,152.049 C295.572,152.049 293.437,149.913 293.437,147.288 Z M109.376,110.491 C109.376,50.337 156.005,1.398 213.319,1.398 C270.633,1.398 317.262,50.337 317.262,110.485 C317.258,110.904 316.619,152.027 297.488,167.84 C296.425,161.765 295.366,156.23 294.371,151.892 C295.414,152.762 296.737,153.306 298.198,153.306 C301.517,153.306 304.217,150.607 304.217,147.288 C304.217,143.97 301.517,141.27 298.198,141.27 C295.617,141.27 293.43,142.911 292.576,145.198 C292.011,143.337 291.494,141.532 291.018,139.742 C298.322,133.864 300.549,112.301 300.645,111.31 C300.645,60.596 261.309,19.336 212.958,19.336 C164.607,19.336 125.27,60.596 125.271,111.337 C125.31,112.248 126.342,133.529 135.735,142.294 C134.565,146.888 133.262,152.277 131.773,158.435 C131.178,160.893 130.543,163.519 129.871,166.286 C110.507,153.746 109.386,110.915 109.376,110.491 Z M136.166,124.927 L129.42,128.127 C128.796,126.032 128.302,123.938 127.914,121.97 L132.727,119.967 L132.244,118.807 L127.676,120.708 C127.332,118.798 127.086,117.05 126.914,115.591 L132.039,114.7 L131.824,113.462 L126.774,114.339 C126.584,112.501 126.528,111.353 126.526,111.31 C126.526,110.613 126.562,109.925 126.577,109.232 L131.965,109.328 L131.987,108.072 L126.607,107.976 C126.678,105.929 126.794,103.894 126.993,101.884 L132.459,103.339 L132.782,102.124 L127.146,100.624 C127.299,99.264 127.475,97.912 127.685,96.571 L133.74,96.026 L133.627,94.774 L127.903,95.289 C128.205,93.52 128.552,91.767 128.951,90.035 L134.665,90.792 L134.831,89.547 L129.222,88.803 C129.636,87.107 130.104,85.434 130.608,83.779 L136.202,85.646 L136.6,84.454 L130.994,82.583 C131.59,80.713 132.237,78.869 132.945,77.054 L137.721,80.078 L138.394,79.017 L133.404,75.858 C133.93,74.563 134.48,73.282 135.061,72.019 L140.659,73.509 L140.983,72.295 L135.623,70.868 C136.258,69.535 136.924,68.222 137.619,66.928 L143.392,68.192 L143.661,66.965 L138.248,65.78 C139.165,64.13 140.115,62.504 141.125,60.923 L146.589,63.479 L147.122,62.342 L141.824,59.863 C142.787,58.4 143.796,56.974 144.837,55.575 L149.606,59.034 L150.344,58.017 L145.591,54.569 C146.771,53.029 147.988,51.523 149.259,50.068 L152.726,54.18 L153.687,53.37 L150.111,49.13 C151.171,47.95 152.261,46.802 153.379,45.683 L157.163,49.314 L158.033,48.407 L154.268,44.794 C155.587,43.511 156.939,42.265 158.333,41.069 L162.313,44.753 L163.167,43.83 L159.312,40.261 C160.626,39.165 161.971,38.109 163.346,37.094 L166.538,41.433 L167.55,40.688 L164.353,36.342 C165.898,35.234 167.485,34.188 169.1,33.185 L170.989,37.759 L172.15,37.28 L170.188,32.528 C171.236,31.899 172.297,31.292 173.373,30.708 L176.05,35.446 L177.144,34.827 L174.479,30.113 C176.084,29.271 177.709,28.462 179.369,27.724 L181.084,32.828 L182.275,32.428 L180.533,27.241 C182.323,26.478 184.142,25.778 185.988,25.139 L186.444,30.686 L187.697,30.583 L187.214,24.703 C188.486,24.286 189.771,23.904 191.068,23.548 L192.941,28.88 L194.126,28.464 L192.289,23.234 C194.037,22.782 195.807,22.395 197.595,22.057 L198.356,27.189 L199.6,27.005 L198.831,21.825 C200.697,21.501 202.579,21.23 204.483,21.034 L204.009,26.022 L205.259,26.141 L205.755,20.932 C207.877,20.747 210.018,20.634 212.181,20.614 L210.397,25.443 L211.576,25.879 L213.522,20.608 C214.896,20.618 216.266,20.653 217.624,20.729 L217.046,26.549 L218.297,26.673 L218.877,20.829 C220.669,20.957 222.446,21.145 224.207,21.386 L222.668,26.559 L223.874,26.918 L225.468,21.555 C227.02,21.792 228.561,22.065 230.084,22.388 L229.365,27.78 L230.611,27.946 L231.314,22.672 C232.766,23.003 234.203,23.373 235.626,23.78 L234.493,29.115 L235.722,29.376 L236.834,24.141 C238.484,24.64 240.118,25.181 241.727,25.779 L239.505,31.045 L240.662,31.533 L242.906,26.214 C244.725,26.922 246.506,27.709 248.266,28.538 L244.939,32.988 L245.945,33.741 L249.423,29.088 C250.683,29.706 251.926,30.355 253.153,31.034 L251.26,36.424 L252.445,36.84 L254.27,31.645 C255.548,32.378 256.805,33.147 258.043,33.946 L256.352,39.559 L257.555,39.921 L259.134,34.68 C260.698,35.721 262.229,36.809 263.722,37.951 L260.805,43.111 L261.898,43.729 L264.734,38.713 C266.153,39.831 267.526,41.008 268.876,42.212 L265.855,46.452 L266.878,47.182 L269.813,43.063 C272.916,45.914 275.822,48.992 278.51,52.274 L273.896,54.912 L274.52,56.003 L279.321,53.257 C280.1,54.236 280.853,55.236 281.593,56.249 L277.58,60.581 L278.501,61.435 L282.35,57.281 C283.204,58.485 284.027,59.714 284.825,60.964 L281.001,65.484 L281.961,66.296 L285.516,62.093 C286.504,63.692 287.448,65.323 288.341,66.99 L283.671,70.516 L284.428,71.519 L288.952,68.103 C289.792,69.724 290.569,71.386 291.316,73.065 L286.688,76.807 L287.478,77.784 L291.833,74.263 C292.532,75.892 293.19,77.543 293.797,79.221 L288.832,81.669 L289.388,82.796 L294.229,80.409 C294.79,82.028 295.296,83.673 295.77,85.332 L290.417,86.798 L290.748,88.01 L296.099,86.545 C296.598,88.388 297.051,90.251 297.439,92.14 L292.252,92.271 L292.284,93.528 L297.696,93.39 C297.967,94.806 298.21,96.231 298.417,97.669 L293.462,99.365 L293.869,100.554 L298.572,98.944 C298.855,101.116 299.068,103.309 299.2,105.526 L293.431,104.956 L293.307,106.206 L299.283,106.797 C299.352,108.272 299.391,109.755 299.391,111.248 C299.389,111.273 299.356,111.585 299.293,112.102 L294.166,110.578 L293.807,111.783 L299.132,113.367 C298.973,114.55 298.735,116.157 298.408,118.001 L292.948,117.272 L292.782,118.518 L298.181,119.238 C297.767,121.424 297.234,123.853 296.566,126.265 L292.708,122.224 L291.799,123.091 L296.074,127.57 L296.235,127.416 C295.825,128.799 295.371,130.162 294.864,131.448 L289.761,128.631 L289.153,129.732 L294.38,132.616 C293.34,135.009 292.11,137.059 290.667,138.396 C287.831,127.278 286.479,116.255 284.486,94.723 C281.952,67.366 250.951,45.053 242.851,41.511 C235.315,38.213 208.685,35.215 186.75,41.482 C164.776,47.759 152.996,75.602 148.562,86.084 C145.133,94.189 142.709,107.343 140.364,120.063 C138.943,127.773 137.6,135.055 136.104,140.855 C136.1,140.869 136.097,140.882 136.093,140.895 C133.229,137.975 131.213,133.719 129.796,129.339 L136.705,126.061 L136.166,124.927 Z M281.659,134.178 C281.913,133.874 282.15,133.585 282.393,133.291 C289.493,148.751 291.955,169.191 292.714,177.841 C289.495,169.845 283.425,162.991 278.118,157.002 C270.14,148.001 276.797,140.012 281.659,134.178 Z M267.574,124.073 C264.64,120.069 261.315,115.532 259.605,110.007 C257.109,101.945 249.671,95.328 244.749,90.95 C243.178,89.552 241.821,88.346 240.97,87.401 C238.907,85.116 234.76,82.847 230.748,80.653 C227.59,78.925 224.325,77.139 222.188,75.404 C218.336,72.276 219.569,67.47 220.049,66.045 C225.862,66.32 231.96,67.824 237.792,71.452 C259.823,85.161 263.42,89.618 266.378,96.52 C267.504,99.146 268.694,101.274 269.966,103.226 C270.143,105.848 271.054,119.462 271.746,130.249 C270.612,128.226 269.122,126.185 267.574,124.073 Z M266.295,173.03 C265.03,173.267 263.796,172.577 263.22,172.187 C264.377,168.771 265.317,164.655 265.984,157.973 C267.45,143.263 268.208,131.999 267.199,125.69 C269.11,128.309 270.762,130.681 271.702,133.033 C271.291,137.974 269.972,154.024 268.782,170.884 C268.101,172.117 267.266,172.845 266.295,173.03 Z M266.685,215.11 C266.905,220.426 266.895,224.591 266.885,228.266 C266.875,232.03 266.868,235.381 267.092,239.147 C265.218,234.329 262.09,225.898 260.357,219.103 C257.879,209.368 259.364,183.214 259.469,181.418 C259.962,180.201 260.44,179.088 260.9,178.017 C261.575,176.451 262.205,174.982 262.787,173.404 C263.462,173.82 264.542,174.335 265.76,174.335 C266.008,174.335 266.263,174.313 266.521,174.265 C267.302,174.119 268,173.725 268.625,173.137 C267.419,190.481 266.398,208.184 266.685,215.11 Z M160.436,140.29 C160.955,140.336 162.229,142.459 163.114,144.752 C163.116,144.757 163.121,144.759 163.123,144.763 C163.272,152.403 163.729,161.525 164.881,169.567 C164.437,170.039 164.018,170.278 163.604,170.261 C163.107,170.23 162.688,169.809 162.488,169.549 C161.67,157.837 160.83,147.173 160.288,140.508 C160.376,140.347 160.438,140.295 160.436,140.29 Z M163.174,129.544 C163.114,131.69 163.023,136.112 163.078,141.651 C162.345,140.303 161.414,139.057 160.464,139.034 C160.372,139.025 160.271,139.036 160.17,139.056 C160.096,138.162 160.031,137.37 159.973,136.67 C160.252,136.045 161.467,133.322 163.174,129.544 Z M216.247,66.034 C217.077,65.999 217.913,65.985 218.758,65.999 C218.188,67.98 217.268,73.027 221.396,76.379 C223.622,78.186 226.938,80 230.145,81.755 C234.064,83.899 238.117,86.116 240.037,88.243 C240.934,89.238 242.315,90.466 243.914,91.889 C248.732,96.174 256.013,102.651 258.405,110.379 C259.975,115.453 262.815,119.661 265.524,123.396 C265.477,123.52 265.458,123.658 265.5,123.796 C267.235,129.539 266.158,143.557 264.734,157.849 C263.685,168.369 261.946,172.407 259.747,177.52 C257.999,181.582 256.019,186.185 253.863,195.03 C249.427,213.23 238.076,219.184 231.704,221.112 C223.936,223.468 219.004,223.202 215.042,222.989 C213.841,222.925 212.705,222.868 211.638,222.889 C203.392,223.093 197.258,219.011 195.049,215.134 C193.712,212.789 188.955,207.267 183.446,200.873 C179.591,196.398 175.222,191.327 171.501,186.726 C162.8,175.969 164.455,128.701 164.473,128.225 C164.483,127.942 164.301,127.705 164.046,127.617 C168.098,118.675 174.142,105.527 177.535,99.049 C182.799,88.999 198.898,82.227 208.517,78.182 L209.038,77.962 C217.07,74.579 216.687,68.305 216.247,66.034 Z M161.938,96.571 C167.269,90.39 176.024,83.111 190.239,73.935 C190.405,73.829 201.35,67.033 214.985,66.096 C215.394,67.823 216.116,73.617 208.55,76.804 L208.03,77.023 C198.255,81.134 181.896,88.016 176.422,98.467 C171.917,107.068 162.774,127.342 159.756,134.077 C159.733,133.81 159.716,133.615 159.707,133.504 L159.597,133.514 C160.896,113.405 161.845,98.063 161.938,96.571 Z M138.903,180.328 C136.244,174.204 135.12,169.095 139.254,162.732 C139.569,162.247 139.895,161.746 140.218,161.246 C140.458,163.597 140.042,166.712 139.605,169.986 C139.131,173.534 138.664,177.15 138.903,180.328 Z M145.821,196.496 C144.673,192.984 143.323,189.874 142.021,187.059 C141.762,186.08 141.449,185.129 141.045,184.225 C139.447,180.658 140.161,175.317 140.85,170.153 C141.365,166.298 141.851,162.658 141.302,160.023 L140.961,160.095 C147.79,149.491 155.929,135.813 154.62,123.053 L154.538,122.251 C153.753,114.703 153.033,107.766 160.577,98.214 C159.604,113.855 152.692,224.384 150.633,237.465 C150.016,241.386 149.457,244.915 148.969,247.996 C148.988,247.068 149.009,246.1 149.031,245.094 C149.347,230.621 149.825,208.751 145.821,196.496 Z M162.606,171.258 C162.873,171.392 163.177,171.491 163.516,171.514 C163.566,171.517 163.617,171.519 163.667,171.519 C164.158,171.519 164.636,171.34 165.1,171.024 C166.221,178.171 167.929,184.309 170.524,187.516 C171.095,188.223 171.704,188.954 172.301,189.679 C173.421,201.725 175.361,233.881 170.957,237.99 C167.135,241.559 163.242,245.707 161.17,247.965 C162.073,242.609 163.023,237.244 163.8,232.863 L164.463,229.114 C165.711,222.043 164.235,194.858 162.606,171.258 Z M266.981,283.073 C266.93,283.076 266.878,283.075 266.826,283.092 C201.596,305.241 163.454,283.518 158.377,280.325 C158.397,277.044 158.34,273.852 158.105,272.084 C157.772,269.571 159.143,260.171 160.787,250.256 C161.802,249.125 166.863,243.531 171.814,238.91 C174.271,236.616 175.304,227.582 174.882,212.059 C174.646,203.366 174.008,194.972 173.71,191.386 C176.615,194.866 179.688,198.437 182.495,201.693 C187.96,208.038 192.681,213.517 193.957,215.756 C196.347,219.948 202.89,224.35 211.668,224.145 C212.681,224.116 213.797,224.18 214.974,224.244 C216.201,224.31 217.519,224.381 218.981,224.381 C222.357,224.381 226.501,224.002 232.069,222.315 C238.696,220.309 250.5,214.135 255.084,195.327 C256.102,191.152 257.08,187.939 258.012,185.277 C257.645,193.383 257.11,211.441 259.141,219.413 C261.631,229.185 266.971,242.277 267.435,243.409 C267.662,245.657 267.977,248.106 268.423,250.903 C270.016,260.906 269.519,271.67 266.981,283.073 Z M266.055,286.918 L265.88,286.455 C265.525,286.588 230.213,299.788 214.673,296.248 L213.915,296.076 L213.906,296.854 C213.896,297.65 213.715,316.071 216.024,324.682 C214.523,324.645 213.064,324.559 211.66,324.433 L211.66,297.11 C211.66,296.927 211.58,296.752 211.44,296.633 C211.302,296.514 211.117,296.462 210.936,296.49 C188.655,299.934 161.582,286.044 158.322,284.315 C158.339,283.496 158.354,282.65 158.365,281.793 C161.581,283.737 170.804,288.704 185.472,291.729 C192.269,293.131 200.827,294.221 211.01,294.221 C226.131,294.221 244.84,291.812 266.677,284.463 C266.484,285.278 266.268,286.099 266.055,286.918 Z M273.216,133.552 C272.617,124.09 271.731,110.787 271.362,105.259 C272.179,106.401 273.024,107.522 273.912,108.691 C274.944,110.048 276.011,111.453 277.135,113.039 C277.646,113.762 278.183,114.493 278.724,115.228 C282.554,120.436 286.515,125.822 282.858,130.694 C282.242,131.516 281.49,132.418 280.694,133.374 C278.257,136.297 275.197,139.97 273.844,144.141 C273.823,143.852 273.807,143.6 273.8,143.426 C273.748,142.143 273.537,138.629 273.256,134.181 L273.406,134.14 C273.354,133.944 273.279,133.748 273.216,133.552 Z M284.71,219.599 C284.552,219.984 284.506,220.508 284.556,221.144 C283.153,226.428 282.229,231.955 282.417,237.752 C279.637,226.109 276.438,210.147 277.514,205.155 C278.827,199.08 276.246,170.606 274.755,154.424 C275.364,155.545 276.156,156.683 277.178,157.835 C286.451,168.3 296.961,180.161 292.845,196.037 C291.918,199.608 290.543,203.386 289.088,207.385 C287.649,211.336 286.161,215.438 284.951,219.699 L284.71,219.599 Z M302.169,205.529 C303.298,213.065 304.189,219.019 304.621,221.173 C305.496,225.546 308.763,231.386 312.546,238.148 C315.35,243.16 318.25,248.342 320.571,253.617 C325.282,264.322 333.542,278.922 346.14,287.684 C352.405,292.043 365.237,306.03 376.275,321.732 C372.152,319.692 353.501,311.068 337.885,313.752 C336.063,311.935 323.68,299.233 316.101,282.436 C307.499,263.383 302.421,253.413 295.98,242.924 C289.699,232.699 286.19,224.588 285.812,221.306 C287.063,216.621 288.698,212.128 290.268,207.815 C291.734,203.786 293.119,199.981 294.061,196.352 C295.4,191.186 295.225,186.398 294.075,181.946 L294.274,181.937 C294.261,181.648 292.826,152.808 283.437,132.547 L282.742,132.869 C283.143,132.379 283.523,131.902 283.863,131.448 C288.08,125.829 283.647,119.802 279.736,114.484 C279.2,113.754 278.667,113.03 278.16,112.313 C277.024,110.709 275.951,109.297 274.912,107.931 C273.593,106.193 272.36,104.563 271.198,102.804 C271.194,102.749 271.191,102.702 271.19,102.693 L271.125,102.697 C269.846,100.749 268.652,98.638 267.533,96.025 C264.467,88.87 260.79,84.283 238.456,70.386 C216.008,56.42 189.827,72.707 189.562,72.876 C150.748,97.933 151.925,109.263 153.287,122.381 L153.37,123.181 C154.732,136.461 145.357,151.029 138.394,161.749 C139.16,155.674 140.602,141.975 139.958,129.057 C140.502,126.239 141.045,123.299 141.6,120.29 C143.932,107.637 146.344,94.553 149.719,86.574 C154.089,76.244 165.698,48.803 187.094,42.69 C207.854,36.758 234.667,39.301 242.348,42.661 C249.996,46.007 280.789,68.426 283.234,94.839 C285.7,121.475 287.191,132.1 291.712,146.668 C294.889,156.904 299.271,186.165 302.169,205.529 Z M435.083,433.621 C432.201,424.973 428.271,422.424 424.109,419.725 C422.439,418.642 420.713,417.522 419.006,415.956 C413.055,410.504 401.184,382.419 396.328,358.629 C391.356,334.267 358.284,294.602 346.857,286.652 C334.499,278.058 326.367,263.668 321.721,253.112 C319.375,247.781 316.461,242.572 313.643,237.535 C309.912,230.865 306.689,225.105 305.853,220.926 C305.428,218.803 304.538,212.863 303.412,205.342 C301.82,194.708 299.781,181.1 297.736,169.267 C308.23,160.998 313.324,145.567 315.745,134.012 C318.384,121.422 318.518,110.605 318.519,110.491 C318.519,49.644 271.326,0.142 213.319,0.142 C155.313,0.142 108.12,49.644 108.12,110.504 C108.122,110.616 108.382,121.855 111.168,134.443 C114.872,151.176 121.059,162.314 129.554,167.585 C126.323,180.851 122.169,197.508 116.717,217.405 C106.942,253.084 87.628,271.527 87.491,271.662 C73.627,281.904 61.456,300.416 51.055,322.047 C50.934,322.08 50.845,322.103 50.832,322.106 L50.9,322.367 C38.725,347.766 28.985,377.424 21.827,403.079 C7.442,454.632 0.073,501.54 0,502.008 L1.242,502.202 C1.447,500.88 16.241,407.686 45.195,338.29 C45.505,338.228 45.985,338.132 46.584,338.011 C44.795,340.811 40.92,347.949 40.576,357.738 C40.4,362.731 40.839,368.725 41.227,374.014 C41.733,380.918 42.307,388.746 40.866,389.666 L41.542,390.726 C43.519,389.463 43.205,383.807 42.48,373.922 C42.094,368.664 41.658,362.706 41.831,357.782 C42.223,346.656 47.479,338.86 48.343,337.65 C49.409,337.429 50.679,337.164 52.114,336.86 C51.647,339.084 51.146,344.712 52.449,358.317 C54.254,377.128 51.72,382.246 51.696,382.291 L52.801,382.891 C52.915,382.682 55.557,377.553 53.7,358.197 C52.221,342.761 53.098,337.859 53.476,336.569 C55.347,336.167 57.437,335.712 59.678,335.211 C60.047,338.438 61.644,352.32 62.512,359.303 C63.241,365.134 61.879,369.698 60.676,373.723 C60.268,375.092 59.882,376.386 59.609,377.635 L60.836,377.903 C61.099,376.7 61.479,375.429 61.881,374.082 C63.118,369.939 64.521,365.242 63.759,359.148 C62.878,352.069 61.249,337.888 60.91,334.934 C64.458,334.133 68.313,333.233 72.196,332.272 C72.16,338.447 70.949,343.901 69.873,348.719 C68.99,352.671 68.228,356.083 68.228,359.225 C68.228,361.494 68.432,364.277 68.647,367.224 C69.079,373.096 69.566,379.751 68.294,382.312 L69.419,382.871 C70.844,380.003 70.365,373.46 69.901,367.132 C69.687,364.209 69.484,361.449 69.484,359.225 C69.484,356.222 70.232,352.872 71.099,348.994 C72.205,344.038 73.459,338.423 73.459,331.995 L73.314,331.995 C75.714,331.393 78.108,330.771 80.435,330.139 C80.785,333.158 82,345.486 80.346,359.15 C78.428,375.044 80.296,380.653 80.377,380.883 L81.564,380.472 C81.546,380.418 79.72,374.825 81.594,359.299 C83.299,345.204 81.983,332.517 81.66,329.802 C85.964,328.611 89.967,327.388 93.224,326.196 C92.971,331.572 91.632,358.367 89.876,364.292 C87.884,371.015 87.862,377.496 87.862,377.769 L89.118,377.769 C89.118,377.704 89.143,371.19 91.081,364.649 C92.974,358.26 94.329,329.581 94.504,325.714 C95.096,325.485 95.668,325.256 96.194,325.031 C98.431,324.072 100.513,323.282 102.456,322.608 C102.394,325.568 102.226,335.683 102.477,349.32 C102.773,365.483 101.21,377.566 101.195,377.687 L102.44,377.851 C102.456,377.73 104.031,365.56 103.733,349.297 C103.469,334.86 103.672,324.372 103.723,322.177 C105.995,321.43 108.028,320.866 109.814,320.44 C109.435,323.393 108.413,332.728 109.965,337.289 L110.233,337.197 C108.262,339.089 107.202,342.702 107.375,347.344 C107.523,351.371 107.176,354.871 106.87,357.958 C106.402,362.678 105.997,366.754 107.38,371.198 C108.263,374.035 109.095,375.741 109.764,377.111 C110.831,379.299 111.475,380.62 111.475,384.604 C111.475,385.987 111.427,387.465 111.378,388.993 C111.197,394.587 111.023,400.868 113.05,405.655 C110.16,405.879 100.696,407.075 90.56,413.209 C87.86,411.231 67.995,397.985 44.224,417.072 L45.011,418.051 C57.896,407.706 69.454,407.268 76.876,408.72 C83.27,409.971 87.784,412.791 89.409,413.929 C85.458,416.458 81.445,419.751 77.709,424.049 L77.708,424.046 C77.488,424.216 55.61,441.107 41.065,444.393 L41.342,445.618 C52.606,443.074 67.67,432.919 74.651,427.882 C73.624,429.291 72.628,430.786 71.672,432.378 C61.986,448.519 58.964,447.891 55.768,447.223 C53.705,446.793 51.367,446.306 47.58,449.363 L48.369,450.339 C51.695,447.656 53.549,448.042 55.511,448.453 C59.158,449.215 62.604,449.933 72.75,433.024 C86.992,409.281 110.26,407.071 113.572,406.875 C114.54,408.981 114.719,410.931 114.898,412.988 C114.934,413.408 114.971,413.83 115.014,414.253 C112.228,414.103 102.783,414.767 90.024,428.165 L90.934,429.032 C103.7,415.628 113.093,415.392 115.175,415.532 C115.435,417.233 115.924,418.987 117.082,420.842 C116.065,421.403 114.255,422.444 111.785,424.026 C111.766,424.038 111.746,424.046 111.729,424.061 C107.719,426.632 101.982,430.622 95.051,436.316 C81.043,447.823 85.192,508.826 85.376,511.416 C85.399,511.747 85.675,512 86.002,512 C86.017,512 86.032,512 86.047,511.998 C86.393,511.974 86.653,511.673 86.629,511.328 C86.585,510.7 82.338,448.385 95.849,437.288 C101.886,432.329 107.002,428.676 110.846,426.135 C109.48,430.587 107.853,442.43 122.077,456.634 C131.647,466.193 137.841,468.609 141.658,468.609 C142.321,468.609 142.913,468.537 143.438,468.414 C143.951,468.295 144.401,468.128 144.789,467.941 C141.407,478.807 140.148,488.732 140.064,489.421 C140.021,489.765 140.266,490.08 140.61,490.121 C140.637,490.124 140.663,490.125 140.688,490.125 C141,490.125 141.272,489.893 141.311,489.574 C141.343,489.313 144.406,465.215 153.759,450.85 C168.767,466.53 185.643,474.676 203.938,475.037 C204.359,475.044 204.773,475.048 205.193,475.048 C235.85,475.048 260.859,453.047 264.553,449.635 C265.195,450.5 265.929,452.115 266.713,454.238 C266.714,454.241 266.715,454.242 266.715,454.245 C270.375,464.152 275.145,485.242 277.032,494.348 C277.094,494.645 277.355,494.849 277.647,494.849 C277.689,494.849 277.732,494.845 277.775,494.835 C278.115,494.765 278.333,494.433 278.263,494.093 C277.983,492.746 272.686,467.325 268.227,454.791 C268.602,454.842 268.99,454.898 269.396,454.957 C270.985,455.192 272.838,455.462 274.943,455.462 C279.365,455.462 284.901,454.262 291.462,448.988 C300.758,441.514 302.75,425.181 303.125,420.758 C305.994,422.724 308.558,424.798 309.127,426.222 C309.18,426.355 309.277,426.453 309.392,426.52 C309.315,427.285 309.22,428.064 309.09,428.872 L308.669,431.484 C305.215,452.87 299.997,485.188 306.155,498.952 C306.26,499.184 306.489,499.323 306.729,499.323 C306.814,499.323 306.901,499.306 306.985,499.268 C307.302,499.126 307.444,498.754 307.302,498.438 C301.297,485.017 306.48,452.922 309.91,431.684 L310.331,429.072 C311.541,421.548 310.515,415.761 307.282,411.871 C304.322,408.309 300.39,407.405 298.667,407.174 C298.685,407.128 298.703,407.081 298.721,407.036 C300.22,407.084 305.534,407.526 309.22,411.196 C309.245,411.228 309.27,411.259 309.301,411.286 C310.644,412.652 311.764,414.445 312.378,416.827 C315.037,427.137 316.371,432.313 312.37,453.089 C308.078,475.363 309.139,495.26 312.404,503.403 C312.502,503.649 312.738,503.797 312.987,503.797 C313.064,503.797 313.144,503.782 313.221,503.751 C313.542,503.622 313.699,503.257 313.57,502.934 C310.452,495.157 309.404,475.128 313.604,453.328 C317.658,432.274 316.301,427.006 313.595,416.512 C313.081,414.518 312.238,412.896 311.206,411.575 C313.712,411.883 319.006,412.96 324.307,416.727 C333.953,423.58 339.133,436.198 339.283,453.214 C339.643,493.785 342.413,498.217 345.345,502.909 L345.711,503.497 C345.829,503.69 346.035,503.797 346.247,503.797 C346.359,503.797 346.473,503.767 346.575,503.704 C346.871,503.522 346.963,503.135 346.781,502.84 L346.41,502.244 C343.574,497.705 340.896,493.42 340.54,453.203 C340.397,437.169 335.968,427.121 330.511,420.811 C336.025,422.788 351.645,431.149 354.944,462.965 C358.644,498.588 364.376,503.474 368.17,506.706 C368.575,507.052 368.952,507.372 369.294,507.713 C369.416,507.836 369.577,507.898 369.737,507.898 C369.898,507.898 370.06,507.836 370.182,507.713 C370.428,507.468 370.428,507.071 370.182,506.826 C369.818,506.462 369.418,506.119 368.984,505.75 C365.564,502.836 359.841,497.958 356.195,462.835 C353.394,435.84 341.748,425.298 334.564,421.311 C343.601,421.643 385.614,425.547 396.721,468.139 C407.329,508.813 409.011,508.865 412.36,508.965 C412.93,508.983 413.466,508.999 414.128,509.325 C414.218,509.37 414.313,509.39 414.405,509.39 C414.638,509.39 414.859,509.261 414.969,509.039 C415.122,508.727 414.994,508.351 414.683,508.199 C413.776,507.751 413.012,507.729 412.398,507.71 C410.023,507.638 408.308,507.586 397.938,467.822 C385.281,419.291 333.332,420.018 332.813,420.029 C332.64,420.033 332.486,420.106 332.376,420.221 C330.394,419.348 329.059,419.061 328.824,419.015 C328.475,418.669 328.125,418.329 327.771,418.009 C330.854,416.641 361.012,403.619 376.567,410.533 C376.885,410.674 377.257,410.531 377.397,410.213 C377.538,409.897 377.396,409.525 377.078,409.384 C369.983,406.229 359.384,406.559 345.57,410.357 C335.339,413.172 327.054,416.953 326.972,416.991 C326.891,417.028 326.822,417.081 326.766,417.144 C325.693,416.257 324.611,415.479 323.537,414.803 C324.896,412.132 333.377,397.18 352.578,397.537 C352.925,397.565 353.211,397.266 353.217,396.919 C353.224,396.572 352.946,396.286 352.6,396.28 C332.957,395.942 324.066,411.073 322.46,414.158 C316.509,410.744 311.123,410.265 309.962,410.203 C306.262,406.669 301.151,405.962 299.145,405.814 C300.248,402.287 300.449,398.615 300.645,394.763 C300.755,392.606 300.869,390.374 301.144,388.034 C301.896,381.596 306.381,375.396 309.985,370.413 C310.457,369.761 310.912,369.13 311.342,368.524 C314.245,364.431 313.718,359.064 313.252,354.328 C313.096,352.742 312.949,351.245 312.949,349.928 C312.949,344.583 311.024,339.113 308.567,337.476 C307.841,336.991 307.005,336.989 306.214,337.463 C304.324,338.601 302.821,342.515 303.12,345.519 C303.388,348.203 303.261,352.583 303.177,355.484 C303.144,356.594 303.117,357.527 303.117,358.131 C303.117,360.045 299.598,365.114 296.313,367.304 C296.052,367.478 295.907,367.52 295.886,367.548 C295.528,366.968 296.157,363.749 297.277,360.495 C297.314,360.313 301.012,342.194 301.749,338.879 C302.246,336.639 301.149,332.765 299.987,328.663 C299.314,326.286 298.678,324.038 298.401,322.245 C297.723,317.849 296.681,313.896 291.453,313.801 C290.063,313.781 289.036,314.177 288.34,314.961 C287.945,311.623 287.596,308.319 287.596,307.052 C287.596,305.684 286.661,304.46 285.03,303.694 C283.13,302.803 280.359,302.605 278.737,303.95 C277.691,304.818 277.211,308.366 277.011,312.314 C276.28,311.276 275.171,310.151 273.546,310.148 L273.094,310.141 C270.32,310.078 270.064,310.83 267.348,320.682 C266.471,323.859 265.981,325.553 265.593,326.893 C264.666,330.101 264.319,331.301 260.632,346.049 C256.723,361.683 249.583,368.879 246.448,371.395 L248.786,364.677 C251.462,356.982 250.881,353.58 250.208,349.642 C250.116,349.104 250.021,348.55 249.932,347.97 C249.152,342.905 245.249,341.099 241.854,341.099 C241.274,341.099 240.735,341.356 240.296,341.842 C238.041,344.332 238.398,353.022 238.618,355.212 C238.822,357.248 237.805,360.849 236.628,365.019 C235.765,368.079 234.786,371.546 234.151,374.94 C233.381,379.062 233.579,384.261 234.211,390.038 L234.023,389.623 C233.83,389.711 214.742,398.31 209.601,392.395 C204.436,386.45 184.922,382.733 181.228,382.074 C181.84,376.761 182.734,372.077 184.258,369.46 C184.472,369.006 189.449,358.275 186.884,354.241 C186.216,353.19 185.141,352.658 183.689,352.658 C175.829,352.658 173.776,360.887 173.757,360.967 L170.775,373.272 C170.76,373.335 170.754,373.4 170.759,373.464 L171.055,377.62 C168.273,376.259 164.636,373.942 164.47,372.24 C164.351,371.002 163.848,367.929 163.265,364.369 C162.443,359.347 161.42,353.1 161.202,350.254 C161.037,348.106 160.305,344.914 159.597,341.829 C158.764,338.195 157.819,334.077 158.185,332.977 C158.758,331.258 160.642,313.879 158.124,310.765 C157.66,310.191 157.14,310.118 156.775,310.157 L156.534,310.183 C153.006,310.571 151.384,311.024 149.892,317.729 C149.422,319.845 149.056,321.096 148.789,322.009 C148.226,323.936 148.015,324.657 148.015,329.05 C148.015,329.117 148.016,329.189 148.016,329.255 C147.316,324.472 146.79,318.53 147.756,315.05 C149.199,309.862 148.076,305.743 146.22,304.356 C145.266,303.643 144.155,303.617 143.09,304.284 C139.952,306.245 137.702,312.91 137.6,313.218 C134.845,322.783 133.869,327.777 135.344,338.827 C135.733,341.748 136.173,344.644 136.591,347.397 C136.731,348.322 136.87,349.233 137.003,350.122 C134.739,346.666 130.68,338.368 131.743,324.289 C131.849,323.521 132.706,316.727 130.281,314.511 C129.58,313.871 128.662,313.662 127.624,313.898 C122.021,315.189 120.478,329.45 121.171,339.162 C121.868,348.946 122.901,363.425 124.282,368.932 C122.813,367.169 120.685,364.688 118.536,363.883 C116.81,363.235 116.995,355.47 117.13,349.801 C117.176,347.904 117.21,346.201 117.212,344.689 C119.921,336.194 118.983,319.535 118.941,318.827 L118.916,318.828 L118.94,318.541 C118.96,318.31 120.969,295.416 126.144,291.654 C128.887,289.658 134.547,283.614 139.634,276.343 C140.844,274.613 142.114,272.67 143.317,270.628 C146.519,276.876 164.224,309.072 195.153,322.301 C195.274,322.345 201.824,324.705 210.799,325.609 C210.871,325.636 210.95,325.655 211.032,325.655 C211.062,325.655 211.086,325.643 211.115,325.638 C213.149,325.834 215.301,325.955 217.532,325.955 C223.71,325.955 230.467,325.039 236.823,322.289 C255.689,314.129 267.674,300.144 267.725,300.073 C268.415,299.474 284.64,285.353 285.565,279.52 C285.886,277.51 286.894,275.138 287.961,272.627 C289.167,269.792 290.395,266.897 290.724,264.279 C291.378,265.736 292.036,267.2 292.673,268.626 C300.936,287.127 308.74,304.602 326.115,326.827 L326.343,327.119 L326.709,327.061 C326.723,327.059 326.844,327.04 327.042,327.011 L326.745,327.251 C326.785,327.3 330.737,332.277 331.456,340.414 C331.689,343.055 331.752,347.393 331.819,351.985 C332.013,365.223 332.31,374.746 334.383,376.732 L335.251,375.824 C333.398,374.048 333.212,361.287 333.075,351.966 C333.008,347.351 332.945,342.991 332.707,340.304 C332.063,333.009 329.017,328.246 328.03,326.873 C329.869,326.628 333.422,326.214 337.359,326.06 C338.669,327.953 346.278,339.306 345.62,346.769 C344.874,355.247 351.699,377.034 351.989,377.957 L353.188,377.58 C353.118,377.357 346.148,355.111 346.872,346.879 C347.521,339.533 340.993,329.188 338.852,326.014 C343.727,325.913 348.919,326.28 352.068,327.878 C352.497,329.318 354.743,337.897 351.974,351.467 C348.845,366.792 355.178,375.097 355.449,375.444 L356.438,374.668 C356.376,374.588 350.19,366.48 353.204,351.717 C355.648,339.745 354.313,331.7 353.57,328.627 C355.67,329.604 357.535,330.092 359.347,330.559 C359.502,330.599 359.654,330.638 359.809,330.679 C359.891,332.737 360.229,342.666 359.791,355.781 C359.291,370.725 363.717,376.435 363.906,376.67 L364.887,375.885 C364.844,375.831 360.563,370.307 361.047,355.822 C361.463,343.365 361.18,333.767 361.079,331.022 C363.68,331.763 366.164,332.796 369.119,335.7 C369.17,337.249 369.449,346.589 369.109,359.207 C368.74,373.112 372.982,384.973 373.024,385.092 L374.206,384.663 C374.164,384.547 370.003,372.911 370.366,359.242 C370.648,348.697 370.502,340.428 370.414,337.058 C370.726,337.407 371.041,337.772 371.364,338.164 C372.831,339.946 374.592,341.663 376.469,343.284 L376.269,343.39 C376.327,343.5 382.115,354.482 380.678,362.873 C379.181,371.606 383.012,386.59 383.175,387.224 L384.392,386.91 C384.352,386.757 380.464,371.555 381.916,363.085 C383.056,356.437 380.034,348.543 378.375,344.866 C380.937,346.908 383.605,348.749 386.021,350.285 C386.505,352.585 389.012,364.315 391.774,373.742 C394.681,383.666 391.96,386.643 391.939,386.665 L392.816,387.566 C392.953,387.432 396.139,384.169 392.98,373.388 C390.555,365.108 388.323,355.036 387.502,351.209 C390.721,353.185 393.271,354.525 394.078,354.94 C394.485,356.288 394.838,357.609 395.098,358.88 C400.083,383.308 411.943,411.192 418.156,416.882 C419.94,418.518 421.713,419.668 423.426,420.78 C427.569,423.467 431.148,425.788 433.891,434.019 C438.146,446.781 449.203,494.518 447.284,511.3 L448.533,511.443 C450.557,493.734 439.095,445.652 435.083,433.621 Z" id="Fill-13"></path>
            </g>
            <path d="M201.439,118.635 C201.709,118.853 202.105,118.81 202.323,118.541 C202.542,118.272 202.5,117.876 202.23,117.658 C191.498,108.973 178.185,120.539 178.054,120.658 C177.793,120.888 177.769,121.285 177.999,121.544 C178.123,121.685 178.296,121.757 178.47,121.757 C178.617,121.757 178.766,121.705 178.886,121.599 C179.011,121.488 191.536,110.619 201.439,118.635" id="Fill-15"></path>
            <path d="M221.792,165.505 C221.836,165.505 221.882,165.5 221.928,165.49 C222.267,165.415 222.48,165.08 222.406,164.741 C220.042,154.029 221.655,136.792 221.674,136.572 C221.676,136.495 221.931,128.703 229.645,120.058 C238.552,110.071 254.723,120.068 254.885,120.171 C255.179,120.355 255.567,120.268 255.751,119.974 C255.937,119.68 255.848,119.292 255.555,119.108 C255.381,118.998 251.239,116.412 245.862,115.089 C238.638,113.311 232.703,114.74 228.707,119.221 C220.661,128.239 220.424,136.213 220.421,136.5 C220.404,136.675 218.773,154.106 221.179,165.012 C221.243,165.306 221.503,165.505 221.792,165.505" id="Fill-16"></path>
            <path d="M179.959,135.544 C187.581,153.192 201.338,135.873 201.338,135.873 C189.405,139.51 179.959,135.544 179.959,135.544" id="Fill-17"></path>
            <path d="M231.544,136.88 C243.033,154.446 251.913,136.244 251.913,136.244 C244.089,141.51 231.544,136.88 231.544,136.88" id="Fill-18"></path>
            <path d="M208.08,169.233 C206.684,169.583 206.115,170.776 206.091,170.826 C205.946,171.139 206.081,171.507 206.392,171.656 C206.707,171.804 207.077,171.672 207.228,171.361 C207.243,171.332 207.587,170.643 208.403,170.447 C209.253,170.245 210.375,170.639 211.648,171.594 C213.087,172.674 214.506,173.036 215.761,173.036 C218.266,173.036 220.117,171.592 220.173,171.546 C220.181,171.538 220.988,170.796 221.878,170.837 C222.349,170.853 222.772,171.075 223.172,171.515 C223.407,171.772 223.803,171.79 224.06,171.556 C224.316,171.322 224.335,170.925 224.101,170.668 C223.47,169.976 222.737,169.61 221.922,169.58 C220.489,169.563 219.354,170.591 219.349,170.599 C219.211,170.708 215.931,173.233 212.401,170.589 C210.784,169.375 209.33,168.917 208.08,169.233" id="Fill-19"></path>
            <path d="M226.583,169.639 C226.62,169.645 226.655,169.648 226.69,169.648 C226.991,169.648 227.257,169.432 227.309,169.126 C228.332,163.161 225.055,157.81 224.915,157.585 C224.73,157.29 224.344,157.201 224.05,157.384 C223.755,157.567 223.665,157.955 223.848,158.249 C223.88,158.3 227.013,163.414 226.071,168.914 C226.012,169.255 226.242,169.58 226.583,169.639" id="Fill-20"></path>
            <path d="M204.195,169.648 C204.242,169.648 204.29,169.643 204.338,169.632 C204.676,169.553 204.887,169.216 204.808,168.877 C203.776,164.444 207.111,160.348 207.145,160.307 C207.365,160.039 207.329,159.643 207.062,159.422 C206.795,159.201 206.399,159.238 206.178,159.504 C206.023,159.69 202.408,164.112 203.584,169.162 C203.651,169.453 203.91,169.648 204.195,169.648" id="Fill-21"></path>
            <path d="M231.594,185.873 C231.563,185.871 228.538,185.62 226.101,184.673 C225.443,184.418 224.79,184.001 224.158,183.597 C222.501,182.54 220.44,181.225 218.387,183.605 C216.467,185.83 215.167,185.023 215.123,184.994 C215.069,184.955 215.023,184.931 214.96,184.911 C214.838,184.856 214.495,184.539 214.221,184.285 C212.966,183.128 210.634,180.972 208.175,182.759 C205.523,184.687 200.134,187.147 200.08,187.171 C199.764,187.315 199.625,187.687 199.769,188.003 C199.874,188.234 200.102,188.371 200.341,188.371 C200.427,188.371 200.516,188.353 200.6,188.315 C200.826,188.212 206.159,185.778 208.914,183.776 C210.413,182.685 211.876,183.831 213.368,185.208 C213.836,185.642 214.16,185.94 214.48,186.072 C214.919,186.329 216.905,187.244 219.337,184.426 C220.622,182.939 221.643,183.482 223.481,184.656 C224.166,185.093 224.873,185.545 225.646,185.845 C228.258,186.859 231.363,187.115 231.494,187.126 C231.831,187.147 232.143,186.894 232.17,186.55 C232.198,186.204 231.94,185.9 231.594,185.873" id="Fill-22"></path>
            <path d="M223.305,191.643 C223.279,191.673 220.611,194.608 214.302,194.53 C208.056,194.459 205.741,190.248 205.646,190.069 C205.483,189.764 205.103,189.647 204.797,189.808 C204.491,189.97 204.373,190.348 204.534,190.655 C204.643,190.861 207.265,195.707 214.287,195.786 C214.37,195.787 214.452,195.788 214.533,195.788 C221.293,195.788 224.133,192.606 224.252,192.469 C224.479,192.208 224.451,191.813 224.19,191.586 C223.93,191.357 223.534,191.384 223.305,191.643" id="Fill-23"></path>
            <path d="M228.274,188.201 C228.148,188.186 225.146,187.85 220.354,188.817 C215.781,189.739 208.609,188.418 208.537,188.404 C208.2,188.349 207.868,188.566 207.805,188.907 C207.741,189.248 207.965,189.576 208.307,189.64 C208.528,189.681 212.447,190.403 216.42,190.403 C217.866,190.403 219.318,190.308 220.603,190.049 C225.18,189.125 228.097,189.445 228.128,189.449 C228.474,189.496 228.784,189.242 228.824,188.897 C228.864,188.553 228.618,188.241 228.274,188.201" id="Fill-24"></path>
            <path d="M247.164,61.722 C244.894,60.718 242.32,59.58 239.16,57.931 C228.308,52.272 211.286,54.973 196.268,57.357 L193.038,57.867 C177.008,60.373 169.54,73.713 169.466,73.847 L170.568,74.451 C170.639,74.322 177.806,61.52 193.231,59.109 L196.465,58.598 C211.29,56.245 228.094,53.575 238.578,59.045 C241.774,60.713 244.368,61.86 246.656,62.871 C252.391,65.407 255.55,66.803 259.215,72.739 L260.283,72.078 C256.415,65.811 252.933,64.272 247.164,61.722" id="Fill-25"></path>
            <path d="M125.526,150.467 C122.721,150.467 120.438,148.184 120.438,145.378 C120.438,142.573 122.721,140.29 125.526,140.29 C128.332,140.29 130.615,142.573 130.615,145.378 C130.615,148.184 128.332,150.467 125.526,150.467 Z M131.872,145.378 C131.872,141.88 129.025,139.034 125.526,139.034 C122.027,139.034 119.181,141.88 119.181,145.378 C119.181,148.877 122.027,151.724 125.526,151.724 C129.025,151.724 131.872,148.877 131.872,145.378 Z" id="Fill-26"></path>
            <path d="M118.816,132.57 C116.009,132.57 113.725,130.288 113.725,127.482 C113.725,124.677 116.009,122.395 118.816,122.395 C121.622,122.395 123.904,124.677 123.904,127.482 C123.904,130.288 121.622,132.57 118.816,132.57 Z M125.161,127.482 C125.161,123.985 122.314,121.139 118.816,121.139 C115.316,121.139 112.469,123.985 112.469,127.482 C112.469,130.98 115.316,133.827 118.816,133.827 C122.314,133.827 125.161,130.98 125.161,127.482 Z" id="Fill-27"></path>
            <path d="M111.488,108.839 C111.488,106.034 113.772,103.752 116.578,103.752 C119.383,103.752 121.666,106.034 121.666,108.839 C121.666,111.645 119.383,113.928 116.578,113.928 C113.772,113.928 111.488,111.645 111.488,108.839 Z M122.922,108.839 C122.922,105.341 120.076,102.495 116.578,102.495 C113.079,102.495 110.231,105.341 110.231,108.839 C110.231,112.338 113.079,115.184 116.578,115.184 C120.076,115.184 122.922,112.338 122.922,108.839 Z" id="Fill-28"></path>
            <path d="M118.816,86.601 C121.622,86.601 123.904,88.884 123.904,91.689 C123.904,94.494 121.622,96.777 118.816,96.777 C116.009,96.777 113.725,94.494 113.725,91.689 C113.725,88.884 116.009,86.601 118.816,86.601 Z M118.816,98.034 C122.314,98.034 125.161,95.188 125.161,91.689 C125.161,88.191 122.314,85.345 118.816,85.345 C115.316,85.345 112.469,88.191 112.469,91.689 C112.469,95.188 115.316,98.034 118.816,98.034 Z" id="Fill-29"></path>
            <path d="M122.542,71.688 C125.35,71.688 127.633,73.971 127.633,76.776 C127.633,79.581 125.35,81.863 122.542,81.863 C119.736,81.863 117.453,79.581 117.453,76.776 C117.453,73.971 119.736,71.688 122.542,71.688 Z M122.542,83.119 C126.042,83.119 128.89,80.273 128.89,76.776 C128.89,73.278 126.042,70.432 122.542,70.432 C119.043,70.432 116.197,73.278 116.197,76.776 C116.197,80.273 119.043,83.119 122.542,83.119 Z" id="Fill-30"></path>
            <path d="M130,56.027 C132.806,56.027 135.089,58.31 135.089,61.117 C135.089,63.922 132.806,66.205 130,66.205 C127.195,66.205 124.913,63.922 124.913,61.117 C124.913,58.31 127.195,56.027 130,56.027 Z M130,67.462 C133.5,67.462 136.346,64.616 136.346,61.117 C136.346,57.618 133.5,54.771 130,54.771 C126.502,54.771 123.656,57.618 123.656,61.117 C123.656,64.616 126.502,67.462 130,67.462 Z" id="Fill-31"></path>
            <path d="M139.694,41.859 C142.5,41.859 144.783,44.141 144.783,46.947 C144.783,49.754 142.5,52.037 139.694,52.037 C136.889,52.037 134.605,49.754 134.605,46.947 C134.605,44.141 136.889,41.859 139.694,41.859 Z M139.694,53.294 C143.193,53.294 146.04,50.446 146.04,46.947 C146.04,43.449 143.193,40.602 139.694,40.602 C136.195,40.602 133.349,43.449 133.349,46.947 C133.349,50.446 136.195,53.294 139.694,53.294 Z" id="Fill-32"></path>
            <path d="M151.626,28.436 C154.431,28.436 156.712,30.72 156.712,33.526 C156.712,36.331 154.431,38.614 151.626,38.614 C148.819,38.614 146.536,36.331 146.536,33.526 C146.536,30.72 148.819,28.436 151.626,28.436 Z M151.626,39.87 C155.124,39.87 157.968,37.024 157.968,33.526 C157.968,30.027 155.124,27.179 151.626,27.179 C148.126,27.179 145.279,30.027 145.279,33.526 C145.279,37.024 148.126,39.87 151.626,39.87 Z" id="Fill-33"></path>
            <path d="M166.537,17.25 C169.343,17.25 171.626,19.534 171.626,22.342 C171.626,25.146 169.343,27.429 166.537,27.429 C163.732,27.429 161.45,25.146 161.45,22.342 C161.45,19.534 163.732,17.25 166.537,17.25 Z M166.537,28.685 C170.036,28.685 172.883,25.839 172.883,22.342 C172.883,18.841 170.036,15.994 166.537,15.994 C163.04,15.994 160.193,18.841 160.193,22.342 C160.193,25.839 163.04,28.685 166.537,28.685 Z" id="Fill-34"></path>
            <path d="M250.802,12.778 C253.607,12.778 255.89,15.06 255.89,17.866 C255.89,20.672 253.607,22.955 250.802,22.955 C247.996,22.955 245.712,20.672 245.712,17.866 C245.712,15.06 247.996,12.778 250.802,12.778 Z M250.802,24.211 C254.3,24.211 257.146,21.365 257.146,17.866 C257.146,14.368 254.3,11.521 250.802,11.521 C247.303,11.521 244.456,14.368 244.456,17.866 C244.456,21.365 247.303,24.211 250.802,24.211 Z" id="Fill-35"></path>
            <path d="M266.461,22.471 C269.267,22.471 271.549,24.754 271.549,27.56 C271.549,30.366 269.267,32.649 266.461,32.649 C263.655,32.649 261.373,30.366 261.373,27.56 C261.373,24.754 263.655,22.471 266.461,22.471 Z M266.461,33.906 C269.959,33.906 272.805,31.059 272.805,27.56 C272.805,24.06 269.959,21.214 266.461,21.214 C262.962,21.214 260.116,24.06 260.116,27.56 C260.116,31.059 262.962,33.906 266.461,33.906 Z" id="Fill-36"></path>
            <path d="M280.3,34.403 C282.926,34.403 285.062,36.539 285.062,39.165 C285.062,41.79 282.926,43.925 280.3,43.925 C277.676,43.925 275.541,41.79 275.541,39.165 C275.541,36.539 277.676,34.403 280.3,34.403 Z M280.3,45.182 C283.619,45.182 286.318,42.482 286.318,39.165 C286.318,35.846 283.619,33.146 280.3,33.146 C276.983,33.146 274.284,35.846 274.284,39.165 C274.284,42.482 276.983,45.182 280.3,45.182 Z" id="Fill-37"></path>
            <path d="M290.742,47.079 C293.367,47.079 295.502,49.215 295.502,51.84 C295.502,54.466 293.367,56.602 290.742,56.602 C288.116,56.602 285.979,54.466 285.979,51.84 C285.979,49.215 288.116,47.079 290.742,47.079 Z M290.742,57.859 C294.06,57.859 296.758,55.159 296.758,51.84 C296.758,48.522 294.06,45.823 290.742,45.823 C287.423,45.823 284.723,48.522 284.723,51.84 C284.723,55.159 287.423,57.859 290.742,57.859 Z" id="Fill-38"></path>
            <path d="M298.942,61.992 C301.568,61.992 303.705,64.128 303.705,66.754 C303.705,69.38 301.568,71.516 298.942,71.516 C296.318,71.516 294.183,69.38 294.183,66.754 C294.183,64.128 296.318,61.992 298.942,61.992 Z M292.926,66.754 C292.926,70.073 295.625,72.773 298.942,72.773 C302.261,72.773 304.961,70.073 304.961,66.754 C304.961,63.436 302.261,60.736 298.942,60.736 C295.625,60.736 292.926,63.436 292.926,66.754 Z" id="Fill-39"></path>
            <path d="M309.669,81.669 C309.669,84.293 307.533,86.429 304.908,86.429 C302.283,86.429 300.147,84.293 300.147,81.669 C300.147,79.043 302.283,76.907 304.908,76.907 C307.533,76.907 309.669,79.043 309.669,81.669 Z M298.891,81.669 C298.891,84.987 301.59,87.686 304.908,87.686 C308.226,87.686 310.925,84.987 310.925,81.669 C310.925,78.35 308.226,75.65 304.908,75.65 C301.59,75.65 298.891,78.35 298.891,81.669 Z" id="Fill-40"></path>
            <path d="M312.653,98.073 C312.653,100.699 310.517,102.835 307.891,102.835 C305.266,102.835 303.131,100.699 303.131,98.073 C303.131,95.447 305.266,93.311 307.891,93.311 C310.517,93.311 312.653,95.447 312.653,98.073 Z M301.874,98.073 C301.874,101.392 304.573,104.092 307.891,104.092 C311.209,104.092 313.91,101.392 313.91,98.073 C313.91,94.754 311.209,92.054 307.891,92.054 C304.573,92.054 301.874,94.754 301.874,98.073 Z" id="Fill-41"></path>
            <path d="M308.637,119.986 C306.011,119.986 303.875,117.849 303.875,115.224 C303.875,112.598 306.011,110.461 308.637,110.461 C311.261,110.461 313.396,112.598 313.396,115.224 C313.396,117.849 311.261,119.986 308.637,119.986 Z M308.637,109.205 C305.318,109.205 302.619,111.905 302.619,115.224 C302.619,118.542 305.318,121.242 308.637,121.242 C311.954,121.242 314.652,118.542 314.652,115.224 C314.652,111.905 311.954,109.205 308.637,109.205 Z" id="Fill-42"></path>
            <path d="M304.908,135.643 C302.283,135.643 300.147,133.508 300.147,130.883 C300.147,128.258 302.283,126.122 304.908,126.122 C307.533,126.122 309.669,128.258 309.669,130.883 C309.669,133.508 307.533,135.643 304.908,135.643 Z M304.908,124.866 C301.59,124.866 298.891,127.565 298.891,130.883 C298.891,134.201 301.59,136.9 304.908,136.9 C308.226,136.9 310.925,134.201 310.925,130.883 C310.925,127.565 308.226,124.866 304.908,124.866 Z" id="Fill-43"></path>
            <polyline id="Fill-44" points="274.283 47.602 273.416 46.693 268.936 50.964 269.803 51.873 274.283 47.602"></polyline>
        </g>
    </g>
</svg>