<?xml version="1.0" standalone="no"?>
<!DOCTYPE svg PUBLIC "-//W3C//DTD SVG 20010904//EN"
 "http://www.w3.org/TR/2001/REC-SVG-20010904/DTD/svg10.dtd">
<svg version="1.0" xmlns="http://www.w3.org/2000/svg"
 width="700.000000pt" height="700.000000pt" viewBox="0 0 700.000000 700.000000"
 preserveAspectRatio="xMidYMid meet">
<metadata>
Created by potrace 1.11, written by Peter Selinger 2001-2013
</metadata>
<g transform="translate(0.000000,700.000000) scale(0.100000,-0.100000)"
fill="#000000" stroke="none">
<path d="M3347 5504 c-1 -1 -53 -5 -115 -9 -63 -4 -124 -8 -135 -10 -12 -2
-49 -6 -81 -10 -185 -20 -469 -86 -691 -160 -174 -59 -482 -196 -595 -265 -8
-5 -64 -39 -125 -76 -310 -188 -452 -311 -1078 -935 l-527 -526 522 -523 c578
-578 680 -671 903 -831 477 -341 1067 -572 1625 -635 30 -3 57 -7 60 -9 11 -7
271 -19 410 -19 256 0 513 27 750 78 54 12 76 16 95 20 16 3 76 19 115 31 3 1
19 5 35 10 303 81 681 256 980 453 270 178 380 277 988 883 l517 517 -522 522
c-288 287 -568 562 -623 610 -84 73 -259 209 -331 258 -51 34 -177 114 -206
131 -129 74 -162 92 -238 128 -169 82 -262 120 -432 178 -142 49 -394 114
-498 130 -19 3 -57 10 -85 15 -72 13 -138 21 -305 35 -76 7 -407 14 -413 9z
m453 -248 c19 -2 59 -7 88 -10 86 -10 121 -16 257 -42 572 -111 1095 -366
1550 -758 74 -63 965 -946 965 -956 0 -6 -843 -850 -900 -901 -294 -263 -672
-494 -1037 -635 -205 -79 -541 -167 -725 -189 -24 -3 -59 -7 -78 -10 -162 -21
-546 -28 -705 -12 -192 19 -468 67 -587 103 -117 36 -274 86 -293 94 -11 5
-60 25 -110 45 -307 124 -602 303 -885 539 -98 81 -1002 976 -998 988 4 9 730
738 839 841 364 345 789 597 1269 753 118 39 363 101 429 109 23 3 46 7 50 9
3 2 34 7 68 11 35 4 75 9 90 11 16 2 66 7 113 10 47 4 87 8 89 10 6 5 468 -3
511 -10z"/>
<path d="M3348 5035 c-2 -2 -24 -6 -48 -9 -25 -3 -70 -10 -100 -16 -30 -6 -66
-14 -80 -16 -98 -19 -320 -115 -435 -187 -255 -161 -468 -405 -587 -672 -37
-83 -83 -212 -92 -255 -2 -14 -9 -46 -15 -71 -32 -142 -35 -430 -6 -579 3 -14
7 -34 9 -45 56 -292 230 -594 470 -816 199 -185 493 -332 746 -374 19 -3 60
-10 92 -16 89 -15 343 -12 424 6 12 3 39 7 60 11 21 3 72 15 113 26 533 145
950 570 1086 1108 13 52 27 118 31 145 3 28 8 59 10 70 5 24 5 244 0 301 -30
351 -190 687 -451 948 -79 79 -215 186 -288 227 -190 106 -359 166 -567 204
-39 7 -366 16 -372 10z m201 -719 c56 -30 77 -93 51 -156 -15 -36 -57 -58
-121 -65 -120 -13 -176 -28 -250 -65 -184 -94 -302 -277 -324 -505 -7 -68 -21
-98 -56 -119 -62 -37 -142 -11 -169 54 -12 30 -10 130 5 203 58 286 267 526
544 622 39 14 95 28 124 31 28 3 54 8 56 10 11 10 115 2 140 -10z"/>
</g>
</svg>
